<?xml version="1.0" encoding="utf-8" standalone="no"?>
<!DOCTYPE svg PUBLIC "-//W3C//DTD SVG 1.1//EN"
  "http://www.w3.org/Graphics/SVG/1.1/DTD/svg11.dtd">
<svg xmlns:xlink="http://www.w3.org/1999/xlink" width="718.108437pt" height="567.034375pt" viewBox="0 0 718.108437 567.034375" xmlns="http://www.w3.org/2000/svg" version="1.1">
 <metadata>
  <rdf:RDF xmlns:dc="http://purl.org/dc/elements/1.1/" xmlns:cc="http://creativecommons.org/ns#" xmlns:rdf="http://www.w3.org/1999/02/22-rdf-syntax-ns#">
   <cc:Work>
    <dc:type rdf:resource="http://purl.org/dc/dcmitype/StillImage"/>
    <dc:date>2025-06-11T19:53:39.604589</dc:date>
    <dc:format>image/svg+xml</dc:format>
    <dc:creator>
     <cc:Agent>
      <dc:title>Matplotlib v3.10.3, https://matplotlib.org/</dc:title>
     </cc:Agent>
    </dc:creator>
   </cc:Work>
  </rdf:RDF>
 </metadata>
 <defs>
  <style type="text/css">*{stroke-linejoin: round; stroke-linecap: butt}</style>
 </defs>
 <g id="figure_1">
  <g id="patch_1">
   <path d="M 0 567.034375 
L 718.108437 567.034375 
L 718.108437 0 
L 0 0 
z
" style="fill: #ffffff"/>
  </g>
  <g id="axes_1">
   <g id="patch_2">
    <path d="M 55.11125 349.277262 
L 677.31 349.277262 
L 677.31 22.318125 
L 55.11125 22.318125 
z
" style="fill: #ffffff"/>
   </g>
   <g id="FillBetweenPolyCollection_1">
    <defs>
     <path id="m29d464f2b5" d="M 83.393011 -493.542368 
L 83.393011 -232.618892 
L 94.936587 -232.618892 
L 106.480163 -232.618892 
L 118.02374 -232.618892 
L 129.567316 -232.618892 
L 141.110892 -232.618892 
L 152.654468 -232.618892 
L 164.198044 -232.618892 
L 175.74162 -232.618892 
L 187.285196 -232.618892 
L 198.828772 -232.618892 
L 210.372348 -232.618892 
L 221.915924 -232.618892 
L 233.4595 -232.618892 
L 245.003076 -232.618892 
L 256.546652 -232.618892 
L 268.090228 -232.618892 
L 279.633804 -232.618892 
L 291.177381 -232.618892 
L 302.720957 -232.618892 
L 314.264533 -232.618892 
L 325.808109 -232.618892 
L 337.351685 -232.618892 
L 348.895261 -232.618892 
L 360.438837 -232.618892 
L 371.982413 -232.618892 
L 383.525989 -232.618892 
L 395.069565 -232.618892 
L 406.613141 -232.618892 
L 418.156717 -232.618892 
L 429.700293 -232.618892 
L 441.243869 -232.618892 
L 452.787446 -232.618892 
L 464.331022 -232.618892 
L 475.874598 -232.618892 
L 487.418174 -232.618892 
L 498.96175 -232.618892 
L 510.505326 -232.618892 
L 522.048902 -232.618892 
L 533.592478 -232.618892 
L 545.136054 -232.618892 
L 556.67963 -232.618892 
L 568.223206 -232.618892 
L 579.766782 -232.618892 
L 591.310358 -232.618892 
L 602.853934 -232.618892 
L 614.39751 -232.618892 
L 625.941087 -232.618892 
L 637.484663 -232.618892 
L 649.028239 -232.618892 
L 649.028239 -477.731376 
L 649.028239 -477.731376 
L 637.484663 -467.967406 
L 625.941087 -468.827628 
L 614.39751 -465.156457 
L 602.853934 -466.819577 
L 591.310358 -469.31159 
L 579.766782 -470.851302 
L 568.223206 -477.951964 
L 556.67963 -473.006968 
L 545.136054 -480.30042 
L 533.592478 -473.032729 
L 522.048902 -479.326249 
L 510.505326 -482.317045 
L 498.96175 -483.658941 
L 487.418174 -485.123033 
L 475.874598 -487.797672 
L 464.331022 -490.938229 
L 452.787446 -497.338835 
L 441.243869 -499.692836 
L 429.700293 -505.806864 
L 418.156717 -509.754615 
L 406.613141 -502.413472 
L 395.069565 -514.88092 
L 383.525989 -514.182762 
L 371.982413 -513.123399 
L 360.438837 -518.214105 
L 348.895261 -519.843551 
L 337.351685 -519.639121 
L 325.808109 -525.290823 
L 314.264533 -524.354488 
L 302.720957 -524.573811 
L 291.177381 -520.256334 
L 279.633804 -526.154986 
L 268.090228 -529.854471 
L 256.546652 -524.019744 
L 245.003076 -526.901288 
L 233.4595 -521.454797 
L 221.915924 -525.703929 
L 210.372348 -522.047677 
L 198.828772 -521.108266 
L 187.285196 -517.316779 
L 175.74162 -514.153806 
L 164.198044 -512.893712 
L 152.654468 -513.830412 
L 141.110892 -513.984299 
L 129.567316 -502.905276 
L 118.02374 -503.373971 
L 106.480163 -504.538923 
L 94.936587 -503.762894 
L 83.393011 -493.542368 
z
" style="stroke: #d3d3d3; stroke-opacity: 0.5"/>
    </defs>
    <g clip-path="url(#pd6d2d1c4ab)">
     <use xlink:href="#m29d464f2b5" x="0" y="567.034375" style="fill: #d3d3d3; fill-opacity: 0.5; stroke: #d3d3d3; stroke-opacity: 0.5"/>
    </g>
   </g>
   <g id="matplotlib.axis_1">
    <g id="xtick_1">
     <g id="line2d_1">
      <path d="M 83.393011 349.277262 
L 83.393011 22.318125 
" clip-path="url(#pd6d2d1c4ab)" style="fill: none; stroke-dasharray: 2.96,1.28; stroke-dashoffset: 0; stroke: #b0b0b0; stroke-opacity: 0.3; stroke-width: 0.8"/>
     </g>
     <g id="line2d_2">
      <defs>
       <path id="mf27429fe85" d="M 0 0 
L 0 4 
" style="stroke: #000000"/>
      </defs>
      <g>
       <use xlink:href="#mf27429fe85" x="83.393011" y="349.277262" style="stroke: #000000"/>
      </g>
     </g>
    </g>
    <g id="xtick_2">
     <g id="line2d_3">
      <path d="M 198.828772 349.277262 
L 198.828772 22.318125 
" clip-path="url(#pd6d2d1c4ab)" style="fill: none; stroke-dasharray: 2.96,1.28; stroke-dashoffset: 0; stroke: #b0b0b0; stroke-opacity: 0.3; stroke-width: 0.8"/>
     </g>
     <g id="line2d_4">
      <g>
       <use xlink:href="#mf27429fe85" x="198.828772" y="349.277262" style="stroke: #000000"/>
      </g>
     </g>
    </g>
    <g id="xtick_3">
     <g id="line2d_5">
      <path d="M 314.264533 349.277262 
L 314.264533 22.318125 
" clip-path="url(#pd6d2d1c4ab)" style="fill: none; stroke-dasharray: 2.96,1.28; stroke-dashoffset: 0; stroke: #b0b0b0; stroke-opacity: 0.3; stroke-width: 0.8"/>
     </g>
     <g id="line2d_6">
      <g>
       <use xlink:href="#mf27429fe85" x="314.264533" y="349.277262" style="stroke: #000000"/>
      </g>
     </g>
    </g>
    <g id="xtick_4">
     <g id="line2d_7">
      <path d="M 429.700293 349.277262 
L 429.700293 22.318125 
" clip-path="url(#pd6d2d1c4ab)" style="fill: none; stroke-dasharray: 2.96,1.28; stroke-dashoffset: 0; stroke: #b0b0b0; stroke-opacity: 0.3; stroke-width: 0.8"/>
     </g>
     <g id="line2d_8">
      <g>
       <use xlink:href="#mf27429fe85" x="429.700293" y="349.277262" style="stroke: #000000"/>
      </g>
     </g>
    </g>
    <g id="xtick_5">
     <g id="line2d_9">
      <path d="M 545.136054 349.277262 
L 545.136054 22.318125 
" clip-path="url(#pd6d2d1c4ab)" style="fill: none; stroke-dasharray: 2.96,1.28; stroke-dashoffset: 0; stroke: #b0b0b0; stroke-opacity: 0.3; stroke-width: 0.8"/>
     </g>
     <g id="line2d_10">
      <g>
       <use xlink:href="#mf27429fe85" x="545.136054" y="349.277262" style="stroke: #000000"/>
      </g>
     </g>
    </g>
    <g id="xtick_6">
     <g id="line2d_11">
      <path d="M 660.571815 349.277262 
L 660.571815 22.318125 
" clip-path="url(#pd6d2d1c4ab)" style="fill: none; stroke-dasharray: 2.96,1.28; stroke-dashoffset: 0; stroke: #b0b0b0; stroke-opacity: 0.3; stroke-width: 0.8"/>
     </g>
     <g id="line2d_12">
      <g>
       <use xlink:href="#mf27429fe85" x="660.571815" y="349.277262" style="stroke: #000000"/>
      </g>
     </g>
    </g>
   </g>
   <g id="matplotlib.axis_2">
    <g id="ytick_1">
     <g id="line2d_13">
      <path d="M 55.11125 334.415483 
L 677.31 334.415483 
" clip-path="url(#pd6d2d1c4ab)" style="fill: none; stroke-dasharray: 2.96,1.28; stroke-dashoffset: 0; stroke: #b0b0b0; stroke-opacity: 0.3; stroke-width: 0.8"/>
     </g>
     <g id="line2d_14">
      <defs>
       <path id="me4e1777a3c" d="M 0 0 
L -4 0 
" style="stroke: #000000"/>
      </defs>
      <g>
       <use xlink:href="#me4e1777a3c" x="55.11125" y="334.415483" style="stroke: #000000"/>
      </g>
     </g>
     <g id="text_1">
      <!-- 0 -->
      <g transform="translate(41.885 337.83478) scale(0.09 -0.09)">
       <defs>
        <path id="DejaVuSans-30" d="M 2034 4250 
Q 1547 4250 1301 3770 
Q 1056 3291 1056 2328 
Q 1056 1369 1301 889 
Q 1547 409 2034 409 
Q 2525 409 2770 889 
Q 3016 1369 3016 2328 
Q 3016 3291 2770 3770 
Q 2525 4250 2034 4250 
z
M 2034 4750 
Q 2819 4750 3233 4129 
Q 3647 3509 3647 2328 
Q 3647 1150 3233 529 
Q 2819 -91 2034 -91 
Q 1250 -91 836 529 
Q 422 1150 422 2328 
Q 422 3509 836 4129 
Q 1250 4750 2034 4750 
z
" transform="scale(0.015625)"/>
       </defs>
       <use xlink:href="#DejaVuSans-30"/>
      </g>
     </g>
    </g>
    <g id="ytick_2">
     <g id="line2d_15">
      <path d="M 55.11125 277.846628 
L 677.31 277.846628 
" clip-path="url(#pd6d2d1c4ab)" style="fill: none; stroke-dasharray: 2.96,1.28; stroke-dashoffset: 0; stroke: #b0b0b0; stroke-opacity: 0.3; stroke-width: 0.8"/>
     </g>
     <g id="line2d_16">
      <g>
       <use xlink:href="#me4e1777a3c" x="55.11125" y="277.846628" style="stroke: #000000"/>
      </g>
     </g>
     <g id="text_2">
      <!-- 100 -->
      <g transform="translate(30.4325 281.265924) scale(0.09 -0.09)">
       <defs>
        <path id="DejaVuSans-31" d="M 794 531 
L 1825 531 
L 1825 4091 
L 703 3866 
L 703 4441 
L 1819 4666 
L 2450 4666 
L 2450 531 
L 3481 531 
L 3481 0 
L 794 0 
L 794 531 
z
" transform="scale(0.015625)"/>
       </defs>
       <use xlink:href="#DejaVuSans-31"/>
       <use xlink:href="#DejaVuSans-30" transform="translate(63.623047 0)"/>
       <use xlink:href="#DejaVuSans-30" transform="translate(127.246094 0)"/>
      </g>
     </g>
    </g>
    <g id="ytick_3">
     <g id="line2d_17">
      <path d="M 55.11125 221.277773 
L 677.31 221.277773 
" clip-path="url(#pd6d2d1c4ab)" style="fill: none; stroke-dasharray: 2.96,1.28; stroke-dashoffset: 0; stroke: #b0b0b0; stroke-opacity: 0.3; stroke-width: 0.8"/>
     </g>
     <g id="line2d_18">
      <g>
       <use xlink:href="#me4e1777a3c" x="55.11125" y="221.277773" style="stroke: #000000"/>
      </g>
     </g>
     <g id="text_3">
      <!-- 200 -->
      <g transform="translate(30.4325 224.697069) scale(0.09 -0.09)">
       <defs>
        <path id="DejaVuSans-32" d="M 1228 531 
L 3431 531 
L 3431 0 
L 469 0 
L 469 531 
Q 828 903 1448 1529 
Q 2069 2156 2228 2338 
Q 2531 2678 2651 2914 
Q 2772 3150 2772 3378 
Q 2772 3750 2511 3984 
Q 2250 4219 1831 4219 
Q 1534 4219 1204 4116 
Q 875 4013 500 3803 
L 500 4441 
Q 881 4594 1212 4672 
Q 1544 4750 1819 4750 
Q 2544 4750 2975 4387 
Q 3406 4025 3406 3419 
Q 3406 3131 3298 2873 
Q 3191 2616 2906 2266 
Q 2828 2175 2409 1742 
Q 1991 1309 1228 531 
z
" transform="scale(0.015625)"/>
       </defs>
       <use xlink:href="#DejaVuSans-32"/>
       <use xlink:href="#DejaVuSans-30" transform="translate(63.623047 0)"/>
       <use xlink:href="#DejaVuSans-30" transform="translate(127.246094 0)"/>
      </g>
     </g>
    </g>
    <g id="ytick_4">
     <g id="line2d_19">
      <path d="M 55.11125 164.708918 
L 677.31 164.708918 
" clip-path="url(#pd6d2d1c4ab)" style="fill: none; stroke-dasharray: 2.96,1.28; stroke-dashoffset: 0; stroke: #b0b0b0; stroke-opacity: 0.3; stroke-width: 0.8"/>
     </g>
     <g id="line2d_20">
      <g>
       <use xlink:href="#me4e1777a3c" x="55.11125" y="164.708918" style="stroke: #000000"/>
      </g>
     </g>
     <g id="text_4">
      <!-- 300 -->
      <g transform="translate(30.4325 168.128214) scale(0.09 -0.09)">
       <defs>
        <path id="DejaVuSans-33" d="M 2597 2516 
Q 3050 2419 3304 2112 
Q 3559 1806 3559 1356 
Q 3559 666 3084 287 
Q 2609 -91 1734 -91 
Q 1441 -91 1130 -33 
Q 819 25 488 141 
L 488 750 
Q 750 597 1062 519 
Q 1375 441 1716 441 
Q 2309 441 2620 675 
Q 2931 909 2931 1356 
Q 2931 1769 2642 2001 
Q 2353 2234 1838 2234 
L 1294 2234 
L 1294 2753 
L 1863 2753 
Q 2328 2753 2575 2939 
Q 2822 3125 2822 3475 
Q 2822 3834 2567 4026 
Q 2313 4219 1838 4219 
Q 1578 4219 1281 4162 
Q 984 4106 628 3988 
L 628 4550 
Q 988 4650 1302 4700 
Q 1616 4750 1894 4750 
Q 2613 4750 3031 4423 
Q 3450 4097 3450 3541 
Q 3450 3153 3228 2886 
Q 3006 2619 2597 2516 
z
" transform="scale(0.015625)"/>
       </defs>
       <use xlink:href="#DejaVuSans-33"/>
       <use xlink:href="#DejaVuSans-30" transform="translate(63.623047 0)"/>
       <use xlink:href="#DejaVuSans-30" transform="translate(127.246094 0)"/>
      </g>
     </g>
    </g>
    <g id="ytick_5">
     <g id="line2d_21">
      <path d="M 55.11125 108.140062 
L 677.31 108.140062 
" clip-path="url(#pd6d2d1c4ab)" style="fill: none; stroke-dasharray: 2.96,1.28; stroke-dashoffset: 0; stroke: #b0b0b0; stroke-opacity: 0.3; stroke-width: 0.8"/>
     </g>
     <g id="line2d_22">
      <g>
       <use xlink:href="#me4e1777a3c" x="55.11125" y="108.140062" style="stroke: #000000"/>
      </g>
     </g>
     <g id="text_5">
      <!-- 400 -->
      <g transform="translate(30.4325 111.559359) scale(0.09 -0.09)">
       <defs>
        <path id="DejaVuSans-34" d="M 2419 4116 
L 825 1625 
L 2419 1625 
L 2419 4116 
z
M 2253 4666 
L 3047 4666 
L 3047 1625 
L 3713 1625 
L 3713 1100 
L 3047 1100 
L 3047 0 
L 2419 0 
L 2419 1100 
L 313 1100 
L 313 1709 
L 2253 4666 
z
" transform="scale(0.015625)"/>
       </defs>
       <use xlink:href="#DejaVuSans-34"/>
       <use xlink:href="#DejaVuSans-30" transform="translate(63.623047 0)"/>
       <use xlink:href="#DejaVuSans-30" transform="translate(127.246094 0)"/>
      </g>
     </g>
    </g>
    <g id="ytick_6">
     <g id="line2d_23">
      <path d="M 55.11125 51.571207 
L 677.31 51.571207 
" clip-path="url(#pd6d2d1c4ab)" style="fill: none; stroke-dasharray: 2.96,1.28; stroke-dashoffset: 0; stroke: #b0b0b0; stroke-opacity: 0.3; stroke-width: 0.8"/>
     </g>
     <g id="line2d_24">
      <g>
       <use xlink:href="#me4e1777a3c" x="55.11125" y="51.571207" style="stroke: #000000"/>
      </g>
     </g>
     <g id="text_6">
      <!-- 500 -->
      <g transform="translate(30.4325 54.990504) scale(0.09 -0.09)">
       <defs>
        <path id="DejaVuSans-35" d="M 691 4666 
L 3169 4666 
L 3169 4134 
L 1269 4134 
L 1269 2991 
Q 1406 3038 1543 3061 
Q 1681 3084 1819 3084 
Q 2600 3084 3056 2656 
Q 3513 2228 3513 1497 
Q 3513 744 3044 326 
Q 2575 -91 1722 -91 
Q 1428 -91 1123 -41 
Q 819 9 494 109 
L 494 744 
Q 775 591 1075 516 
Q 1375 441 1709 441 
Q 2250 441 2565 725 
Q 2881 1009 2881 1497 
Q 2881 1984 2565 2268 
Q 2250 2553 1709 2553 
Q 1456 2553 1204 2497 
Q 953 2441 691 2322 
L 691 4666 
z
" transform="scale(0.015625)"/>
       </defs>
       <use xlink:href="#DejaVuSans-35"/>
       <use xlink:href="#DejaVuSans-30" transform="translate(63.623047 0)"/>
       <use xlink:href="#DejaVuSans-30" transform="translate(127.246094 0)"/>
      </g>
     </g>
    </g>
    <g id="text_7">
     <!-- Elevation (m) -->
     <g transform="translate(24.144844 222.743084) rotate(-90) scale(0.11 -0.11)">
      <defs>
       <path id="DejaVuSans-45" d="M 628 4666 
L 3578 4666 
L 3578 4134 
L 1259 4134 
L 1259 2753 
L 3481 2753 
L 3481 2222 
L 1259 2222 
L 1259 531 
L 3634 531 
L 3634 0 
L 628 0 
L 628 4666 
z
" transform="scale(0.015625)"/>
       <path id="DejaVuSans-6c" d="M 603 4863 
L 1178 4863 
L 1178 0 
L 603 0 
L 603 4863 
z
" transform="scale(0.015625)"/>
       <path id="DejaVuSans-65" d="M 3597 1894 
L 3597 1613 
L 953 1613 
Q 991 1019 1311 708 
Q 1631 397 2203 397 
Q 2534 397 2845 478 
Q 3156 559 3463 722 
L 3463 178 
Q 3153 47 2828 -22 
Q 2503 -91 2169 -91 
Q 1331 -91 842 396 
Q 353 884 353 1716 
Q 353 2575 817 3079 
Q 1281 3584 2069 3584 
Q 2775 3584 3186 3129 
Q 3597 2675 3597 1894 
z
M 3022 2063 
Q 3016 2534 2758 2815 
Q 2500 3097 2075 3097 
Q 1594 3097 1305 2825 
Q 1016 2553 972 2059 
L 3022 2063 
z
" transform="scale(0.015625)"/>
       <path id="DejaVuSans-76" d="M 191 3500 
L 800 3500 
L 1894 563 
L 2988 3500 
L 3597 3500 
L 2284 0 
L 1503 0 
L 191 3500 
z
" transform="scale(0.015625)"/>
       <path id="DejaVuSans-61" d="M 2194 1759 
Q 1497 1759 1228 1600 
Q 959 1441 959 1056 
Q 959 750 1161 570 
Q 1363 391 1709 391 
Q 2188 391 2477 730 
Q 2766 1069 2766 1631 
L 2766 1759 
L 2194 1759 
z
M 3341 1997 
L 3341 0 
L 2766 0 
L 2766 531 
Q 2569 213 2275 61 
Q 1981 -91 1556 -91 
Q 1019 -91 701 211 
Q 384 513 384 1019 
Q 384 1609 779 1909 
Q 1175 2209 1959 2209 
L 2766 2209 
L 2766 2266 
Q 2766 2663 2505 2880 
Q 2244 3097 1772 3097 
Q 1472 3097 1187 3025 
Q 903 2953 641 2809 
L 641 3341 
Q 956 3463 1253 3523 
Q 1550 3584 1831 3584 
Q 2591 3584 2966 3190 
Q 3341 2797 3341 1997 
z
" transform="scale(0.015625)"/>
       <path id="DejaVuSans-74" d="M 1172 4494 
L 1172 3500 
L 2356 3500 
L 2356 3053 
L 1172 3053 
L 1172 1153 
Q 1172 725 1289 603 
Q 1406 481 1766 481 
L 2356 481 
L 2356 0 
L 1766 0 
Q 1100 0 847 248 
Q 594 497 594 1153 
L 594 3053 
L 172 3053 
L 172 3500 
L 594 3500 
L 594 4494 
L 1172 4494 
z
" transform="scale(0.015625)"/>
       <path id="DejaVuSans-69" d="M 603 3500 
L 1178 3500 
L 1178 0 
L 603 0 
L 603 3500 
z
M 603 4863 
L 1178 4863 
L 1178 4134 
L 603 4134 
L 603 4863 
z
" transform="scale(0.015625)"/>
       <path id="DejaVuSans-6f" d="M 1959 3097 
Q 1497 3097 1228 2736 
Q 959 2375 959 1747 
Q 959 1119 1226 758 
Q 1494 397 1959 397 
Q 2419 397 2687 759 
Q 2956 1122 2956 1747 
Q 2956 2369 2687 2733 
Q 2419 3097 1959 3097 
z
M 1959 3584 
Q 2709 3584 3137 3096 
Q 3566 2609 3566 1747 
Q 3566 888 3137 398 
Q 2709 -91 1959 -91 
Q 1206 -91 779 398 
Q 353 888 353 1747 
Q 353 2609 779 3096 
Q 1206 3584 1959 3584 
z
" transform="scale(0.015625)"/>
       <path id="DejaVuSans-6e" d="M 3513 2113 
L 3513 0 
L 2938 0 
L 2938 2094 
Q 2938 2591 2744 2837 
Q 2550 3084 2163 3084 
Q 1697 3084 1428 2787 
Q 1159 2491 1159 1978 
L 1159 0 
L 581 0 
L 581 3500 
L 1159 3500 
L 1159 2956 
Q 1366 3272 1645 3428 
Q 1925 3584 2291 3584 
Q 2894 3584 3203 3211 
Q 3513 2838 3513 2113 
z
" transform="scale(0.015625)"/>
       <path id="DejaVuSans-20" transform="scale(0.015625)"/>
       <path id="DejaVuSans-28" d="M 1984 4856 
Q 1566 4138 1362 3434 
Q 1159 2731 1159 2009 
Q 1159 1288 1364 580 
Q 1569 -128 1984 -844 
L 1484 -844 
Q 1016 -109 783 600 
Q 550 1309 550 2009 
Q 550 2706 781 3412 
Q 1013 4119 1484 4856 
L 1984 4856 
z
" transform="scale(0.015625)"/>
       <path id="DejaVuSans-6d" d="M 3328 2828 
Q 3544 3216 3844 3400 
Q 4144 3584 4550 3584 
Q 5097 3584 5394 3201 
Q 5691 2819 5691 2113 
L 5691 0 
L 5113 0 
L 5113 2094 
Q 5113 2597 4934 2840 
Q 4756 3084 4391 3084 
Q 3944 3084 3684 2787 
Q 3425 2491 3425 1978 
L 3425 0 
L 2847 0 
L 2847 2094 
Q 2847 2600 2669 2842 
Q 2491 3084 2119 3084 
Q 1678 3084 1418 2786 
Q 1159 2488 1159 1978 
L 1159 0 
L 581 0 
L 581 3500 
L 1159 3500 
L 1159 2956 
Q 1356 3278 1631 3431 
Q 1906 3584 2284 3584 
Q 2666 3584 2933 3390 
Q 3200 3197 3328 2828 
z
" transform="scale(0.015625)"/>
       <path id="DejaVuSans-29" d="M 513 4856 
L 1013 4856 
Q 1481 4119 1714 3412 
Q 1947 2706 1947 2009 
Q 1947 1309 1714 600 
Q 1481 -109 1013 -844 
L 513 -844 
Q 928 -128 1133 580 
Q 1338 1288 1338 2009 
Q 1338 2731 1133 3434 
Q 928 4138 513 4856 
z
" transform="scale(0.015625)"/>
      </defs>
      <use xlink:href="#DejaVuSans-45"/>
      <use xlink:href="#DejaVuSans-6c" transform="translate(63.183594 0)"/>
      <use xlink:href="#DejaVuSans-65" transform="translate(90.966797 0)"/>
      <use xlink:href="#DejaVuSans-76" transform="translate(152.490234 0)"/>
      <use xlink:href="#DejaVuSans-61" transform="translate(211.669922 0)"/>
      <use xlink:href="#DejaVuSans-74" transform="translate(272.949219 0)"/>
      <use xlink:href="#DejaVuSans-69" transform="translate(312.158203 0)"/>
      <use xlink:href="#DejaVuSans-6f" transform="translate(339.941406 0)"/>
      <use xlink:href="#DejaVuSans-6e" transform="translate(401.123047 0)"/>
      <use xlink:href="#DejaVuSans-20" transform="translate(464.501953 0)"/>
      <use xlink:href="#DejaVuSans-28" transform="translate(496.289062 0)"/>
      <use xlink:href="#DejaVuSans-6d" transform="translate(535.302734 0)"/>
      <use xlink:href="#DejaVuSans-29" transform="translate(632.714844 0)"/>
     </g>
    </g>
   </g>
   <g id="line2d_25">
    <path d="M 83.393011 73.492007 
L 94.936587 63.271481 
L 106.480163 62.495452 
L 118.02374 63.660404 
L 129.567316 64.129099 
L 141.110892 53.050076 
L 152.654468 53.203963 
L 164.198044 54.140663 
L 175.74162 52.880569 
L 187.285196 49.717596 
L 198.828772 45.926109 
L 210.372348 44.986698 
L 221.915924 41.330446 
L 233.4595 45.579578 
L 245.003076 40.133087 
L 256.546652 43.014631 
L 268.090228 37.179904 
L 279.633804 40.879389 
L 291.177381 46.778041 
L 302.720957 42.460564 
L 314.264533 42.679887 
L 325.808109 41.743552 
L 337.351685 47.395254 
L 348.895261 47.190824 
L 360.438837 48.82027 
L 371.982413 53.910976 
L 383.525989 52.851613 
L 395.069565 52.153455 
L 406.613141 64.620903 
L 418.156717 57.27976 
L 429.700293 61.227511 
L 441.243869 67.341539 
L 452.787446 69.69554 
L 464.331022 76.096146 
L 475.874598 79.236703 
L 487.418174 81.911342 
L 498.96175 83.375434 
L 510.505326 84.71733 
L 522.048902 87.708126 
L 533.592478 94.001646 
L 545.136054 86.733955 
L 556.67963 94.027407 
L 568.223206 89.082411 
L 579.766782 96.183073 
L 591.310358 97.722785 
L 602.853934 100.214798 
L 614.39751 101.877918 
L 625.941087 98.206747 
L 637.484663 99.066969 
L 649.028239 89.302999 
" clip-path="url(#pd6d2d1c4ab)" style="fill: none; stroke: #000000; stroke-width: 2; stroke-linecap: square"/>
   </g>
   <g id="patch_3">
    <path d="M 55.11125 349.277262 
L 55.11125 22.318125 
" style="fill: none; stroke: #000000; stroke-linejoin: miter; stroke-linecap: square"/>
   </g>
   <g id="patch_4">
    <path d="M 55.11125 349.277262 
L 677.31 349.277262 
" style="fill: none; stroke: #000000; stroke-linejoin: miter; stroke-linecap: square"/>
   </g>
   <g id="text_8">
    <!-- Terrain Cross-Section (Y=25) -->
    <g transform="translate(280.175313 16.318125) scale(0.12 -0.12)">
     <defs>
      <path id="DejaVuSans-54" d="M -19 4666 
L 3928 4666 
L 3928 4134 
L 2272 4134 
L 2272 0 
L 1638 0 
L 1638 4134 
L -19 4134 
L -19 4666 
z
" transform="scale(0.015625)"/>
      <path id="DejaVuSans-72" d="M 2631 2963 
Q 2534 3019 2420 3045 
Q 2306 3072 2169 3072 
Q 1681 3072 1420 2755 
Q 1159 2438 1159 1844 
L 1159 0 
L 581 0 
L 581 3500 
L 1159 3500 
L 1159 2956 
Q 1341 3275 1631 3429 
Q 1922 3584 2338 3584 
Q 2397 3584 2469 3576 
Q 2541 3569 2628 3553 
L 2631 2963 
z
" transform="scale(0.015625)"/>
      <path id="DejaVuSans-43" d="M 4122 4306 
L 4122 3641 
Q 3803 3938 3442 4084 
Q 3081 4231 2675 4231 
Q 1875 4231 1450 3742 
Q 1025 3253 1025 2328 
Q 1025 1406 1450 917 
Q 1875 428 2675 428 
Q 3081 428 3442 575 
Q 3803 722 4122 1019 
L 4122 359 
Q 3791 134 3420 21 
Q 3050 -91 2638 -91 
Q 1578 -91 968 557 
Q 359 1206 359 2328 
Q 359 3453 968 4101 
Q 1578 4750 2638 4750 
Q 3056 4750 3426 4639 
Q 3797 4528 4122 4306 
z
" transform="scale(0.015625)"/>
      <path id="DejaVuSans-73" d="M 2834 3397 
L 2834 2853 
Q 2591 2978 2328 3040 
Q 2066 3103 1784 3103 
Q 1356 3103 1142 2972 
Q 928 2841 928 2578 
Q 928 2378 1081 2264 
Q 1234 2150 1697 2047 
L 1894 2003 
Q 2506 1872 2764 1633 
Q 3022 1394 3022 966 
Q 3022 478 2636 193 
Q 2250 -91 1575 -91 
Q 1294 -91 989 -36 
Q 684 19 347 128 
L 347 722 
Q 666 556 975 473 
Q 1284 391 1588 391 
Q 1994 391 2212 530 
Q 2431 669 2431 922 
Q 2431 1156 2273 1281 
Q 2116 1406 1581 1522 
L 1381 1569 
Q 847 1681 609 1914 
Q 372 2147 372 2553 
Q 372 3047 722 3315 
Q 1072 3584 1716 3584 
Q 2034 3584 2315 3537 
Q 2597 3491 2834 3397 
z
" transform="scale(0.015625)"/>
      <path id="DejaVuSans-2d" d="M 313 2009 
L 1997 2009 
L 1997 1497 
L 313 1497 
L 313 2009 
z
" transform="scale(0.015625)"/>
      <path id="DejaVuSans-53" d="M 3425 4513 
L 3425 3897 
Q 3066 4069 2747 4153 
Q 2428 4238 2131 4238 
Q 1616 4238 1336 4038 
Q 1056 3838 1056 3469 
Q 1056 3159 1242 3001 
Q 1428 2844 1947 2747 
L 2328 2669 
Q 3034 2534 3370 2195 
Q 3706 1856 3706 1288 
Q 3706 609 3251 259 
Q 2797 -91 1919 -91 
Q 1588 -91 1214 -16 
Q 841 59 441 206 
L 441 856 
Q 825 641 1194 531 
Q 1563 422 1919 422 
Q 2459 422 2753 634 
Q 3047 847 3047 1241 
Q 3047 1584 2836 1778 
Q 2625 1972 2144 2069 
L 1759 2144 
Q 1053 2284 737 2584 
Q 422 2884 422 3419 
Q 422 4038 858 4394 
Q 1294 4750 2059 4750 
Q 2388 4750 2728 4690 
Q 3069 4631 3425 4513 
z
" transform="scale(0.015625)"/>
      <path id="DejaVuSans-63" d="M 3122 3366 
L 3122 2828 
Q 2878 2963 2633 3030 
Q 2388 3097 2138 3097 
Q 1578 3097 1268 2742 
Q 959 2388 959 1747 
Q 959 1106 1268 751 
Q 1578 397 2138 397 
Q 2388 397 2633 464 
Q 2878 531 3122 666 
L 3122 134 
Q 2881 22 2623 -34 
Q 2366 -91 2075 -91 
Q 1284 -91 818 406 
Q 353 903 353 1747 
Q 353 2603 823 3093 
Q 1294 3584 2113 3584 
Q 2378 3584 2631 3529 
Q 2884 3475 3122 3366 
z
" transform="scale(0.015625)"/>
      <path id="DejaVuSans-59" d="M -13 4666 
L 666 4666 
L 1959 2747 
L 3244 4666 
L 3922 4666 
L 2272 2222 
L 2272 0 
L 1638 0 
L 1638 2222 
L -13 4666 
z
" transform="scale(0.015625)"/>
      <path id="DejaVuSans-3d" d="M 678 2906 
L 4684 2906 
L 4684 2381 
L 678 2381 
L 678 2906 
z
M 678 1631 
L 4684 1631 
L 4684 1100 
L 678 1100 
L 678 1631 
z
" transform="scale(0.015625)"/>
     </defs>
     <use xlink:href="#DejaVuSans-54"/>
     <use xlink:href="#DejaVuSans-65" transform="translate(44.083984 0)"/>
     <use xlink:href="#DejaVuSans-72" transform="translate(105.607422 0)"/>
     <use xlink:href="#DejaVuSans-72" transform="translate(144.970703 0)"/>
     <use xlink:href="#DejaVuSans-61" transform="translate(186.083984 0)"/>
     <use xlink:href="#DejaVuSans-69" transform="translate(247.363281 0)"/>
     <use xlink:href="#DejaVuSans-6e" transform="translate(275.146484 0)"/>
     <use xlink:href="#DejaVuSans-20" transform="translate(338.525391 0)"/>
     <use xlink:href="#DejaVuSans-43" transform="translate(370.3125 0)"/>
     <use xlink:href="#DejaVuSans-72" transform="translate(440.136719 0)"/>
     <use xlink:href="#DejaVuSans-6f" transform="translate(479 0)"/>
     <use xlink:href="#DejaVuSans-73" transform="translate(540.181641 0)"/>
     <use xlink:href="#DejaVuSans-73" transform="translate(592.28125 0)"/>
     <use xlink:href="#DejaVuSans-2d" transform="translate(644.380859 0)"/>
     <use xlink:href="#DejaVuSans-53" transform="translate(680.464844 0)"/>
     <use xlink:href="#DejaVuSans-65" transform="translate(743.941406 0)"/>
     <use xlink:href="#DejaVuSans-63" transform="translate(805.464844 0)"/>
     <use xlink:href="#DejaVuSans-74" transform="translate(860.445312 0)"/>
     <use xlink:href="#DejaVuSans-69" transform="translate(899.654297 0)"/>
     <use xlink:href="#DejaVuSans-6f" transform="translate(927.4375 0)"/>
     <use xlink:href="#DejaVuSans-6e" transform="translate(988.619141 0)"/>
     <use xlink:href="#DejaVuSans-20" transform="translate(1051.998047 0)"/>
     <use xlink:href="#DejaVuSans-28" transform="translate(1083.785156 0)"/>
     <use xlink:href="#DejaVuSans-59" transform="translate(1122.798828 0)"/>
     <use xlink:href="#DejaVuSans-3d" transform="translate(1183.882812 0)"/>
     <use xlink:href="#DejaVuSans-32" transform="translate(1267.671875 0)"/>
     <use xlink:href="#DejaVuSans-35" transform="translate(1331.294922 0)"/>
     <use xlink:href="#DejaVuSans-29" transform="translate(1394.917969 0)"/>
    </g>
   </g>
   <g id="PathCollection_1">
    <defs>
     <path id="m4ce3c2b9e2" d="M 0 3.535534 
C 0.937635 3.535534 1.836992 3.163008 2.5 2.5 
C 3.163008 1.836992 3.535534 0.937635 3.535534 0 
C 3.535534 -0.937635 3.163008 -1.836992 2.5 -2.5 
C 1.836992 -3.163008 0.937635 -3.535534 0 -3.535534 
C -0.937635 -3.535534 -1.836992 -3.163008 -2.5 -2.5 
C -3.163008 -1.836992 -3.535534 -0.937635 -3.535534 0 
C -3.535534 0.937635 -3.163008 1.836992 -2.5 2.5 
C -1.836992 3.163008 -0.937635 3.535534 0 3.535534 
z
" style="stroke: #000000"/>
    </defs>
    <g clip-path="url(#pd6d2d1c4ab)">
     <use xlink:href="#m4ce3c2b9e2" x="83.393011" y="73.492007" style="fill: #e0e0e0; stroke: #000000"/>
    </g>
   </g>
   <g id="PathCollection_2">
    <g clip-path="url(#pd6d2d1c4ab)">
     <use xlink:href="#m4ce3c2b9e2" x="94.936587" y="63.271481" style="fill: #e0e0e0; stroke: #000000"/>
    </g>
   </g>
   <g id="PathCollection_3">
    <defs>
     <path id="m43f63ec600" d="M 0 3.535534 
C 0.937635 3.535534 1.836992 3.163008 2.5 2.5 
C 3.163008 1.836992 3.535534 0.937635 3.535534 0 
C 3.535534 -0.937635 3.163008 -1.836992 2.5 -2.5 
C 1.836992 -3.163008 0.937635 -3.535534 0 -3.535534 
C -0.937635 -3.535534 -1.836992 -3.163008 -2.5 -2.5 
C -3.163008 -1.836992 -3.535534 -0.937635 -3.535534 0 
C -3.535534 0.937635 -3.163008 1.836992 -2.5 2.5 
C -1.836992 3.163008 -0.937635 3.535534 0 3.535534 
z
" style="stroke: #000000"/>
    </defs>
    <g clip-path="url(#pd6d2d1c4ab)">
     <use xlink:href="#m43f63ec600" x="106.480163" y="62.495452" style="fill: #228b22; stroke: #000000"/>
    </g>
   </g>
   <g id="PathCollection_4">
    <g clip-path="url(#pd6d2d1c4ab)">
     <use xlink:href="#m43f63ec600" x="118.02374" y="63.660404" style="fill: #228b22; stroke: #000000"/>
    </g>
   </g>
   <g id="PathCollection_5">
    <g clip-path="url(#pd6d2d1c4ab)">
     <use xlink:href="#m43f63ec600" x="129.567316" y="64.129099" style="fill: #228b22; stroke: #000000"/>
    </g>
   </g>
   <g id="PathCollection_6">
    <g clip-path="url(#pd6d2d1c4ab)">
     <use xlink:href="#m43f63ec600" x="141.110892" y="53.050076" style="fill: #228b22; stroke: #000000"/>
    </g>
   </g>
   <g id="PathCollection_7">
    <g clip-path="url(#pd6d2d1c4ab)">
     <use xlink:href="#m43f63ec600" x="152.654468" y="53.203963" style="fill: #228b22; stroke: #000000"/>
    </g>
   </g>
   <g id="PathCollection_8">
    <g clip-path="url(#pd6d2d1c4ab)">
     <use xlink:href="#m43f63ec600" x="164.198044" y="54.140663" style="fill: #228b22; stroke: #000000"/>
    </g>
   </g>
   <g id="PathCollection_9">
    <g clip-path="url(#pd6d2d1c4ab)">
     <use xlink:href="#m43f63ec600" x="175.74162" y="52.880569" style="fill: #228b22; stroke: #000000"/>
    </g>
   </g>
   <g id="PathCollection_10">
    <g clip-path="url(#pd6d2d1c4ab)">
     <use xlink:href="#m43f63ec600" x="187.285196" y="49.717596" style="fill: #228b22; stroke: #000000"/>
    </g>
   </g>
   <g id="PathCollection_11">
    <g clip-path="url(#pd6d2d1c4ab)">
     <use xlink:href="#m43f63ec600" x="198.828772" y="45.926109" style="fill: #228b22; stroke: #000000"/>
    </g>
   </g>
   <g id="PathCollection_12">
    <g clip-path="url(#pd6d2d1c4ab)">
     <use xlink:href="#m43f63ec600" x="210.372348" y="44.986698" style="fill: #228b22; stroke: #000000"/>
    </g>
   </g>
   <g id="PathCollection_13">
    <g clip-path="url(#pd6d2d1c4ab)">
     <use xlink:href="#m43f63ec600" x="221.915924" y="41.330446" style="fill: #228b22; stroke: #000000"/>
    </g>
   </g>
   <g id="PathCollection_14">
    <g clip-path="url(#pd6d2d1c4ab)">
     <use xlink:href="#m43f63ec600" x="233.4595" y="45.579578" style="fill: #228b22; stroke: #000000"/>
    </g>
   </g>
   <g id="PathCollection_15">
    <g clip-path="url(#pd6d2d1c4ab)">
     <use xlink:href="#m43f63ec600" x="245.003076" y="40.133087" style="fill: #228b22; stroke: #000000"/>
    </g>
   </g>
   <g id="PathCollection_16">
    <g clip-path="url(#pd6d2d1c4ab)">
     <use xlink:href="#m43f63ec600" x="256.546652" y="43.014631" style="fill: #228b22; stroke: #000000"/>
    </g>
   </g>
   <g id="PathCollection_17">
    <g clip-path="url(#pd6d2d1c4ab)">
     <use xlink:href="#m43f63ec600" x="268.090228" y="37.179904" style="fill: #228b22; stroke: #000000"/>
    </g>
   </g>
   <g id="PathCollection_18">
    <g clip-path="url(#pd6d2d1c4ab)">
     <use xlink:href="#m43f63ec600" x="279.633804" y="40.879389" style="fill: #228b22; stroke: #000000"/>
    </g>
   </g>
   <g id="PathCollection_19">
    <defs>
     <path id="md9f6481262" d="M 0 3.535534 
C 0.937635 3.535534 1.836992 3.163008 2.5 2.5 
C 3.163008 1.836992 3.535534 0.937635 3.535534 0 
C 3.535534 -0.937635 3.163008 -1.836992 2.5 -2.5 
C 1.836992 -3.163008 0.937635 -3.535534 0 -3.535534 
C -0.937635 -3.535534 -1.836992 -3.163008 -2.5 -2.5 
C -3.163008 -1.836992 -3.535534 -0.937635 -3.535534 0 
C -3.535534 0.937635 -3.163008 1.836992 -2.5 2.5 
C -1.836992 3.163008 -0.937635 3.535534 0 3.535534 
z
" style="stroke: #000000"/>
    </defs>
    <g clip-path="url(#pd6d2d1c4ab)">
     <use xlink:href="#md9f6481262" x="291.177381" y="46.778041" style="fill: #ff4500; stroke: #000000"/>
    </g>
   </g>
   <g id="PathCollection_20">
    <g clip-path="url(#pd6d2d1c4ab)">
     <use xlink:href="#md9f6481262" x="302.720957" y="42.460564" style="fill: #ff4500; stroke: #000000"/>
    </g>
   </g>
   <g id="PathCollection_21">
    <g clip-path="url(#pd6d2d1c4ab)">
     <use xlink:href="#md9f6481262" x="314.264533" y="42.679887" style="fill: #ff4500; stroke: #000000"/>
    </g>
   </g>
   <g id="PathCollection_22">
    <defs>
     <path id="m607e2e3140" d="M 0 3.535534 
C 0.937635 3.535534 1.836992 3.163008 2.5 2.5 
C 3.163008 1.836992 3.535534 0.937635 3.535534 0 
C 3.535534 -0.937635 3.163008 -1.836992 2.5 -2.5 
C 1.836992 -3.163008 0.937635 -3.535534 0 -3.535534 
C -0.937635 -3.535534 -1.836992 -3.163008 -2.5 -2.5 
C -3.163008 -1.836992 -3.535534 -0.937635 -3.535534 0 
C -3.535534 0.937635 -3.163008 1.836992 -2.5 2.5 
C -1.836992 3.163008 -0.937635 3.535534 0 3.535534 
z
" style="stroke: #000000"/>
    </defs>
    <g clip-path="url(#pd6d2d1c4ab)">
     <use xlink:href="#m607e2e3140" x="325.808109" y="41.743552" style="fill: #2f4f4f; stroke: #000000"/>
    </g>
   </g>
   <g id="PathCollection_23">
    <g clip-path="url(#pd6d2d1c4ab)">
     <use xlink:href="#m607e2e3140" x="337.351685" y="47.395254" style="fill: #2f4f4f; stroke: #000000"/>
    </g>
   </g>
   <g id="PathCollection_24">
    <g clip-path="url(#pd6d2d1c4ab)">
     <use xlink:href="#m607e2e3140" x="348.895261" y="47.190824" style="fill: #2f4f4f; stroke: #000000"/>
    </g>
   </g>
   <g id="PathCollection_25">
    <g clip-path="url(#pd6d2d1c4ab)">
     <use xlink:href="#m607e2e3140" x="360.438837" y="48.82027" style="fill: #2f4f4f; stroke: #000000"/>
    </g>
   </g>
   <g id="PathCollection_26">
    <g clip-path="url(#pd6d2d1c4ab)">
     <use xlink:href="#m607e2e3140" x="371.982413" y="53.910976" style="fill: #2f4f4f; stroke: #000000"/>
    </g>
   </g>
   <g id="PathCollection_27">
    <g clip-path="url(#pd6d2d1c4ab)">
     <use xlink:href="#m607e2e3140" x="383.525989" y="52.851613" style="fill: #2f4f4f; stroke: #000000"/>
    </g>
   </g>
   <g id="PathCollection_28">
    <g clip-path="url(#pd6d2d1c4ab)">
     <use xlink:href="#m607e2e3140" x="395.069565" y="52.153455" style="fill: #2f4f4f; stroke: #000000"/>
    </g>
   </g>
   <g id="PathCollection_29">
    <g clip-path="url(#pd6d2d1c4ab)">
     <use xlink:href="#m607e2e3140" x="406.613141" y="64.620903" style="fill: #2f4f4f; stroke: #000000"/>
    </g>
   </g>
   <g id="PathCollection_30">
    <g clip-path="url(#pd6d2d1c4ab)">
     <use xlink:href="#m607e2e3140" x="418.156717" y="57.27976" style="fill: #2f4f4f; stroke: #000000"/>
    </g>
   </g>
   <g id="PathCollection_31">
    <g clip-path="url(#pd6d2d1c4ab)">
     <use xlink:href="#md9f6481262" x="429.700293" y="61.227511" style="fill: #ff4500; stroke: #000000"/>
    </g>
   </g>
   <g id="PathCollection_32">
    <g clip-path="url(#pd6d2d1c4ab)">
     <use xlink:href="#md9f6481262" x="441.243869" y="67.341539" style="fill: #ff4500; stroke: #000000"/>
    </g>
   </g>
   <g id="PathCollection_33">
    <g clip-path="url(#pd6d2d1c4ab)">
     <use xlink:href="#md9f6481262" x="452.787446" y="69.69554" style="fill: #ff4500; stroke: #000000"/>
    </g>
   </g>
   <g id="PathCollection_34">
    <g clip-path="url(#pd6d2d1c4ab)">
     <use xlink:href="#m43f63ec600" x="464.331022" y="76.096146" style="fill: #228b22; stroke: #000000"/>
    </g>
   </g>
   <g id="PathCollection_35">
    <g clip-path="url(#pd6d2d1c4ab)">
     <use xlink:href="#m43f63ec600" x="475.874598" y="79.236703" style="fill: #228b22; stroke: #000000"/>
    </g>
   </g>
   <g id="PathCollection_36">
    <g clip-path="url(#pd6d2d1c4ab)">
     <use xlink:href="#m43f63ec600" x="487.418174" y="81.911342" style="fill: #228b22; stroke: #000000"/>
    </g>
   </g>
   <g id="PathCollection_37">
    <g clip-path="url(#pd6d2d1c4ab)">
     <use xlink:href="#m43f63ec600" x="498.96175" y="83.375434" style="fill: #228b22; stroke: #000000"/>
    </g>
   </g>
   <g id="PathCollection_38">
    <g clip-path="url(#pd6d2d1c4ab)">
     <use xlink:href="#m43f63ec600" x="510.505326" y="84.71733" style="fill: #228b22; stroke: #000000"/>
    </g>
   </g>
   <g id="PathCollection_39">
    <g clip-path="url(#pd6d2d1c4ab)">
     <use xlink:href="#m43f63ec600" x="522.048902" y="87.708126" style="fill: #228b22; stroke: #000000"/>
    </g>
   </g>
   <g id="PathCollection_40">
    <g clip-path="url(#pd6d2d1c4ab)">
     <use xlink:href="#m43f63ec600" x="533.592478" y="94.001646" style="fill: #228b22; stroke: #000000"/>
    </g>
   </g>
   <g id="PathCollection_41">
    <g clip-path="url(#pd6d2d1c4ab)">
     <use xlink:href="#m43f63ec600" x="545.136054" y="86.733955" style="fill: #228b22; stroke: #000000"/>
    </g>
   </g>
   <g id="PathCollection_42">
    <g clip-path="url(#pd6d2d1c4ab)">
     <use xlink:href="#m43f63ec600" x="556.67963" y="94.027407" style="fill: #228b22; stroke: #000000"/>
    </g>
   </g>
   <g id="PathCollection_43">
    <g clip-path="url(#pd6d2d1c4ab)">
     <use xlink:href="#m43f63ec600" x="568.223206" y="89.082411" style="fill: #228b22; stroke: #000000"/>
    </g>
   </g>
   <g id="PathCollection_44">
    <g clip-path="url(#pd6d2d1c4ab)">
     <use xlink:href="#m43f63ec600" x="579.766782" y="96.183073" style="fill: #228b22; stroke: #000000"/>
    </g>
   </g>
   <g id="PathCollection_45">
    <g clip-path="url(#pd6d2d1c4ab)">
     <use xlink:href="#m43f63ec600" x="591.310358" y="97.722785" style="fill: #228b22; stroke: #000000"/>
    </g>
   </g>
   <g id="PathCollection_46">
    <g clip-path="url(#pd6d2d1c4ab)">
     <use xlink:href="#m43f63ec600" x="602.853934" y="100.214798" style="fill: #228b22; stroke: #000000"/>
    </g>
   </g>
   <g id="PathCollection_47">
    <g clip-path="url(#pd6d2d1c4ab)">
     <use xlink:href="#m43f63ec600" x="614.39751" y="101.877918" style="fill: #228b22; stroke: #000000"/>
    </g>
   </g>
   <g id="PathCollection_48">
    <g clip-path="url(#pd6d2d1c4ab)">
     <use xlink:href="#m43f63ec600" x="625.941087" y="98.206747" style="fill: #228b22; stroke: #000000"/>
    </g>
   </g>
   <g id="PathCollection_49">
    <g clip-path="url(#pd6d2d1c4ab)">
     <use xlink:href="#m43f63ec600" x="637.484663" y="99.066969" style="fill: #228b22; stroke: #000000"/>
    </g>
   </g>
   <g id="PathCollection_50">
    <g clip-path="url(#pd6d2d1c4ab)">
     <use xlink:href="#m43f63ec600" x="649.028239" y="89.302999" style="fill: #228b22; stroke: #000000"/>
    </g>
   </g>
   <g id="legend_1">
    <g id="patch_5">
     <path d="M 607.167656 82.359375 
L 671.01 82.359375 
Q 672.81 82.359375 672.81 80.559375 
L 672.81 28.618125 
Q 672.81 26.818125 671.01 26.818125 
L 607.167656 26.818125 
Q 605.367656 26.818125 605.367656 28.618125 
L 605.367656 80.559375 
Q 605.367656 82.359375 607.167656 82.359375 
z
" style="fill: #ffffff; opacity: 0.8; stroke: #cccccc; stroke-linejoin: miter"/>
    </g>
    <g id="patch_6">
     <path d="M 608.967656 37.256719 
L 626.967656 37.256719 
L 626.967656 30.956719 
L 608.967656 30.956719 
z
" style="fill: #e0e0e0"/>
    </g>
    <g id="text_9">
     <!-- Empty -->
     <g transform="translate(634.167656 37.256719) scale(0.09 -0.09)">
      <defs>
       <path id="DejaVuSans-70" d="M 1159 525 
L 1159 -1331 
L 581 -1331 
L 581 3500 
L 1159 3500 
L 1159 2969 
Q 1341 3281 1617 3432 
Q 1894 3584 2278 3584 
Q 2916 3584 3314 3078 
Q 3713 2572 3713 1747 
Q 3713 922 3314 415 
Q 2916 -91 2278 -91 
Q 1894 -91 1617 61 
Q 1341 213 1159 525 
z
M 3116 1747 
Q 3116 2381 2855 2742 
Q 2594 3103 2138 3103 
Q 1681 3103 1420 2742 
Q 1159 2381 1159 1747 
Q 1159 1113 1420 752 
Q 1681 391 2138 391 
Q 2594 391 2855 752 
Q 3116 1113 3116 1747 
z
" transform="scale(0.015625)"/>
       <path id="DejaVuSans-79" d="M 2059 -325 
Q 1816 -950 1584 -1140 
Q 1353 -1331 966 -1331 
L 506 -1331 
L 506 -850 
L 844 -850 
Q 1081 -850 1212 -737 
Q 1344 -625 1503 -206 
L 1606 56 
L 191 3500 
L 800 3500 
L 1894 763 
L 2988 3500 
L 3597 3500 
L 2059 -325 
z
" transform="scale(0.015625)"/>
      </defs>
      <use xlink:href="#DejaVuSans-45"/>
      <use xlink:href="#DejaVuSans-6d" transform="translate(63.183594 0)"/>
      <use xlink:href="#DejaVuSans-70" transform="translate(160.595703 0)"/>
      <use xlink:href="#DejaVuSans-74" transform="translate(224.072266 0)"/>
      <use xlink:href="#DejaVuSans-79" transform="translate(263.28125 0)"/>
     </g>
    </g>
    <g id="patch_7">
     <path d="M 608.967656 50.467031 
L 626.967656 50.467031 
L 626.967656 44.167031 
L 608.967656 44.167031 
z
" style="fill: #228b22"/>
    </g>
    <g id="text_10">
     <!-- Tree -->
     <g transform="translate(634.167656 50.467031) scale(0.09 -0.09)">
      <use xlink:href="#DejaVuSans-54"/>
      <use xlink:href="#DejaVuSans-72" transform="translate(46.333984 0)"/>
      <use xlink:href="#DejaVuSans-65" transform="translate(85.197266 0)"/>
      <use xlink:href="#DejaVuSans-65" transform="translate(146.720703 0)"/>
     </g>
    </g>
    <g id="patch_8">
     <path d="M 608.967656 63.677344 
L 626.967656 63.677344 
L 626.967656 57.377344 
L 608.967656 57.377344 
z
" style="fill: #ff4500"/>
    </g>
    <g id="text_11">
     <!-- Burning -->
     <g transform="translate(634.167656 63.677344) scale(0.09 -0.09)">
      <defs>
       <path id="DejaVuSans-42" d="M 1259 2228 
L 1259 519 
L 2272 519 
Q 2781 519 3026 730 
Q 3272 941 3272 1375 
Q 3272 1813 3026 2020 
Q 2781 2228 2272 2228 
L 1259 2228 
z
M 1259 4147 
L 1259 2741 
L 2194 2741 
Q 2656 2741 2882 2914 
Q 3109 3088 3109 3444 
Q 3109 3797 2882 3972 
Q 2656 4147 2194 4147 
L 1259 4147 
z
M 628 4666 
L 2241 4666 
Q 2963 4666 3353 4366 
Q 3744 4066 3744 3513 
Q 3744 3084 3544 2831 
Q 3344 2578 2956 2516 
Q 3422 2416 3680 2098 
Q 3938 1781 3938 1306 
Q 3938 681 3513 340 
Q 3088 0 2303 0 
L 628 0 
L 628 4666 
z
" transform="scale(0.015625)"/>
       <path id="DejaVuSans-75" d="M 544 1381 
L 544 3500 
L 1119 3500 
L 1119 1403 
Q 1119 906 1312 657 
Q 1506 409 1894 409 
Q 2359 409 2629 706 
Q 2900 1003 2900 1516 
L 2900 3500 
L 3475 3500 
L 3475 0 
L 2900 0 
L 2900 538 
Q 2691 219 2414 64 
Q 2138 -91 1772 -91 
Q 1169 -91 856 284 
Q 544 659 544 1381 
z
M 1991 3584 
L 1991 3584 
z
" transform="scale(0.015625)"/>
       <path id="DejaVuSans-67" d="M 2906 1791 
Q 2906 2416 2648 2759 
Q 2391 3103 1925 3103 
Q 1463 3103 1205 2759 
Q 947 2416 947 1791 
Q 947 1169 1205 825 
Q 1463 481 1925 481 
Q 2391 481 2648 825 
Q 2906 1169 2906 1791 
z
M 3481 434 
Q 3481 -459 3084 -895 
Q 2688 -1331 1869 -1331 
Q 1566 -1331 1297 -1286 
Q 1028 -1241 775 -1147 
L 775 -588 
Q 1028 -725 1275 -790 
Q 1522 -856 1778 -856 
Q 2344 -856 2625 -561 
Q 2906 -266 2906 331 
L 2906 616 
Q 2728 306 2450 153 
Q 2172 0 1784 0 
Q 1141 0 747 490 
Q 353 981 353 1791 
Q 353 2603 747 3093 
Q 1141 3584 1784 3584 
Q 2172 3584 2450 3431 
Q 2728 3278 2906 2969 
L 2906 3500 
L 3481 3500 
L 3481 434 
z
" transform="scale(0.015625)"/>
      </defs>
      <use xlink:href="#DejaVuSans-42"/>
      <use xlink:href="#DejaVuSans-75" transform="translate(68.603516 0)"/>
      <use xlink:href="#DejaVuSans-72" transform="translate(131.982422 0)"/>
      <use xlink:href="#DejaVuSans-6e" transform="translate(171.345703 0)"/>
      <use xlink:href="#DejaVuSans-69" transform="translate(234.724609 0)"/>
      <use xlink:href="#DejaVuSans-6e" transform="translate(262.507812 0)"/>
      <use xlink:href="#DejaVuSans-67" transform="translate(325.886719 0)"/>
     </g>
    </g>
    <g id="patch_9">
     <path d="M 608.967656 76.887656 
L 626.967656 76.887656 
L 626.967656 70.587656 
L 608.967656 70.587656 
z
" style="fill: #2f4f4f"/>
    </g>
    <g id="text_12">
     <!-- Burnt -->
     <g transform="translate(634.167656 76.887656) scale(0.09 -0.09)">
      <use xlink:href="#DejaVuSans-42"/>
      <use xlink:href="#DejaVuSans-75" transform="translate(68.603516 0)"/>
      <use xlink:href="#DejaVuSans-72" transform="translate(131.982422 0)"/>
      <use xlink:href="#DejaVuSans-6e" transform="translate(171.345703 0)"/>
      <use xlink:href="#DejaVuSans-74" transform="translate(234.724609 0)"/>
     </g>
    </g>
   </g>
  </g>
  <g id="axes_2">
   <g id="patch_10">
    <path d="M 55.11125 528.978125 
L 677.31 528.978125 
L 677.31 365.498557 
L 55.11125 365.498557 
z
" style="fill: #ffffff"/>
   </g>
   <g id="matplotlib.axis_3">
    <g id="xtick_7">
     <g id="line2d_26">
      <path d="M 83.393011 528.978125 
L 83.393011 365.498557 
" clip-path="url(#p26940f98aa)" style="fill: none; stroke-dasharray: 2.96,1.28; stroke-dashoffset: 0; stroke: #b0b0b0; stroke-opacity: 0.3; stroke-width: 0.8"/>
     </g>
     <g id="line2d_27">
      <g>
       <use xlink:href="#mf27429fe85" x="83.393011" y="528.978125" style="stroke: #000000"/>
      </g>
     </g>
     <g id="text_13">
      <!-- 0 -->
      <g transform="translate(80.529886 543.316719) scale(0.09 -0.09)">
       <use xlink:href="#DejaVuSans-30"/>
      </g>
     </g>
    </g>
    <g id="xtick_8">
     <g id="line2d_28">
      <path d="M 198.828772 528.978125 
L 198.828772 365.498557 
" clip-path="url(#p26940f98aa)" style="fill: none; stroke-dasharray: 2.96,1.28; stroke-dashoffset: 0; stroke: #b0b0b0; stroke-opacity: 0.3; stroke-width: 0.8"/>
     </g>
     <g id="line2d_29">
      <g>
       <use xlink:href="#mf27429fe85" x="198.828772" y="528.978125" style="stroke: #000000"/>
      </g>
     </g>
     <g id="text_14">
      <!-- 10 -->
      <g transform="translate(193.102522 543.316719) scale(0.09 -0.09)">
       <use xlink:href="#DejaVuSans-31"/>
       <use xlink:href="#DejaVuSans-30" transform="translate(63.623047 0)"/>
      </g>
     </g>
    </g>
    <g id="xtick_9">
     <g id="line2d_30">
      <path d="M 314.264533 528.978125 
L 314.264533 365.498557 
" clip-path="url(#p26940f98aa)" style="fill: none; stroke-dasharray: 2.96,1.28; stroke-dashoffset: 0; stroke: #b0b0b0; stroke-opacity: 0.3; stroke-width: 0.8"/>
     </g>
     <g id="line2d_31">
      <g>
       <use xlink:href="#mf27429fe85" x="314.264533" y="528.978125" style="stroke: #000000"/>
      </g>
     </g>
     <g id="text_15">
      <!-- 20 -->
      <g transform="translate(308.538283 543.316719) scale(0.09 -0.09)">
       <use xlink:href="#DejaVuSans-32"/>
       <use xlink:href="#DejaVuSans-30" transform="translate(63.623047 0)"/>
      </g>
     </g>
    </g>
    <g id="xtick_10">
     <g id="line2d_32">
      <path d="M 429.700293 528.978125 
L 429.700293 365.498557 
" clip-path="url(#p26940f98aa)" style="fill: none; stroke-dasharray: 2.96,1.28; stroke-dashoffset: 0; stroke: #b0b0b0; stroke-opacity: 0.3; stroke-width: 0.8"/>
     </g>
     <g id="line2d_33">
      <g>
       <use xlink:href="#mf27429fe85" x="429.700293" y="528.978125" style="stroke: #000000"/>
      </g>
     </g>
     <g id="text_16">
      <!-- 30 -->
      <g transform="translate(423.974043 543.316719) scale(0.09 -0.09)">
       <use xlink:href="#DejaVuSans-33"/>
       <use xlink:href="#DejaVuSans-30" transform="translate(63.623047 0)"/>
      </g>
     </g>
    </g>
    <g id="xtick_11">
     <g id="line2d_34">
      <path d="M 545.136054 528.978125 
L 545.136054 365.498557 
" clip-path="url(#p26940f98aa)" style="fill: none; stroke-dasharray: 2.96,1.28; stroke-dashoffset: 0; stroke: #b0b0b0; stroke-opacity: 0.3; stroke-width: 0.8"/>
     </g>
     <g id="line2d_35">
      <g>
       <use xlink:href="#mf27429fe85" x="545.136054" y="528.978125" style="stroke: #000000"/>
      </g>
     </g>
     <g id="text_17">
      <!-- 40 -->
      <g transform="translate(539.409804 543.316719) scale(0.09 -0.09)">
       <use xlink:href="#DejaVuSans-34"/>
       <use xlink:href="#DejaVuSans-30" transform="translate(63.623047 0)"/>
      </g>
     </g>
    </g>
    <g id="xtick_12">
     <g id="line2d_36">
      <path d="M 660.571815 528.978125 
L 660.571815 365.498557 
" clip-path="url(#p26940f98aa)" style="fill: none; stroke-dasharray: 2.96,1.28; stroke-dashoffset: 0; stroke: #b0b0b0; stroke-opacity: 0.3; stroke-width: 0.8"/>
     </g>
     <g id="line2d_37">
      <g>
       <use xlink:href="#mf27429fe85" x="660.571815" y="528.978125" style="stroke: #000000"/>
      </g>
     </g>
     <g id="text_18">
      <!-- 50 -->
      <g transform="translate(654.845565 543.316719) scale(0.09 -0.09)">
       <use xlink:href="#DejaVuSans-35"/>
       <use xlink:href="#DejaVuSans-30" transform="translate(63.623047 0)"/>
      </g>
     </g>
    </g>
    <g id="text_19">
     <!-- X Position -->
     <g transform="translate(339.284688 557.546719) scale(0.11 -0.11)">
      <defs>
       <path id="DejaVuSans-58" d="M 403 4666 
L 1081 4666 
L 2241 2931 
L 3406 4666 
L 4084 4666 
L 2584 2425 
L 4184 0 
L 3506 0 
L 2194 1984 
L 872 0 
L 191 0 
L 1856 2491 
L 403 4666 
z
" transform="scale(0.015625)"/>
       <path id="DejaVuSans-50" d="M 1259 4147 
L 1259 2394 
L 2053 2394 
Q 2494 2394 2734 2622 
Q 2975 2850 2975 3272 
Q 2975 3691 2734 3919 
Q 2494 4147 2053 4147 
L 1259 4147 
z
M 628 4666 
L 2053 4666 
Q 2838 4666 3239 4311 
Q 3641 3956 3641 3272 
Q 3641 2581 3239 2228 
Q 2838 1875 2053 1875 
L 1259 1875 
L 1259 0 
L 628 0 
L 628 4666 
z
" transform="scale(0.015625)"/>
      </defs>
      <use xlink:href="#DejaVuSans-58"/>
      <use xlink:href="#DejaVuSans-20" transform="translate(68.505859 0)"/>
      <use xlink:href="#DejaVuSans-50" transform="translate(100.292969 0)"/>
      <use xlink:href="#DejaVuSans-6f" transform="translate(156.970703 0)"/>
      <use xlink:href="#DejaVuSans-73" transform="translate(218.152344 0)"/>
      <use xlink:href="#DejaVuSans-69" transform="translate(270.251953 0)"/>
      <use xlink:href="#DejaVuSans-74" transform="translate(298.035156 0)"/>
      <use xlink:href="#DejaVuSans-69" transform="translate(337.244141 0)"/>
      <use xlink:href="#DejaVuSans-6f" transform="translate(365.027344 0)"/>
      <use xlink:href="#DejaVuSans-6e" transform="translate(426.208984 0)"/>
     </g>
    </g>
   </g>
   <g id="matplotlib.axis_4">
    <g id="ytick_7">
     <g id="line2d_38">
      <path d="M 55.11125 523.748843 
L 677.31 523.748843 
" clip-path="url(#p26940f98aa)" style="fill: none; stroke-dasharray: 2.96,1.28; stroke-dashoffset: 0; stroke: #b0b0b0; stroke-opacity: 0.3; stroke-width: 0.8"/>
     </g>
     <g id="line2d_39">
      <g>
       <use xlink:href="#me4e1777a3c" x="55.11125" y="523.748843" style="stroke: #000000"/>
      </g>
     </g>
     <g id="text_20">
      <!-- 0.300 -->
      <g style="fill: #0000ff" transform="translate(21.845938 527.16814) scale(0.09 -0.09)">
       <defs>
        <path id="DejaVuSans-2e" d="M 684 794 
L 1344 794 
L 1344 0 
L 684 0 
L 684 794 
z
" transform="scale(0.015625)"/>
       </defs>
       <use xlink:href="#DejaVuSans-30"/>
       <use xlink:href="#DejaVuSans-2e" transform="translate(63.623047 0)"/>
       <use xlink:href="#DejaVuSans-33" transform="translate(95.410156 0)"/>
       <use xlink:href="#DejaVuSans-30" transform="translate(159.033203 0)"/>
       <use xlink:href="#DejaVuSans-30" transform="translate(222.65625 0)"/>
      </g>
     </g>
    </g>
    <g id="ytick_8">
     <g id="line2d_40">
      <path d="M 55.11125 504.877333 
L 677.31 504.877333 
" clip-path="url(#p26940f98aa)" style="fill: none; stroke-dasharray: 2.96,1.28; stroke-dashoffset: 0; stroke: #b0b0b0; stroke-opacity: 0.3; stroke-width: 0.8"/>
     </g>
     <g id="line2d_41">
      <g>
       <use xlink:href="#me4e1777a3c" x="55.11125" y="504.877333" style="stroke: #000000"/>
      </g>
     </g>
     <g id="text_21">
      <!-- 0.325 -->
      <g style="fill: #0000ff" transform="translate(21.845938 508.29663) scale(0.09 -0.09)">
       <use xlink:href="#DejaVuSans-30"/>
       <use xlink:href="#DejaVuSans-2e" transform="translate(63.623047 0)"/>
       <use xlink:href="#DejaVuSans-33" transform="translate(95.410156 0)"/>
       <use xlink:href="#DejaVuSans-32" transform="translate(159.033203 0)"/>
       <use xlink:href="#DejaVuSans-35" transform="translate(222.65625 0)"/>
      </g>
     </g>
    </g>
    <g id="ytick_9">
     <g id="line2d_42">
      <path d="M 55.11125 486.005824 
L 677.31 486.005824 
" clip-path="url(#p26940f98aa)" style="fill: none; stroke-dasharray: 2.96,1.28; stroke-dashoffset: 0; stroke: #b0b0b0; stroke-opacity: 0.3; stroke-width: 0.8"/>
     </g>
     <g id="line2d_43">
      <g>
       <use xlink:href="#me4e1777a3c" x="55.11125" y="486.005824" style="stroke: #000000"/>
      </g>
     </g>
     <g id="text_22">
      <!-- 0.350 -->
      <g style="fill: #0000ff" transform="translate(21.845938 489.42512) scale(0.09 -0.09)">
       <use xlink:href="#DejaVuSans-30"/>
       <use xlink:href="#DejaVuSans-2e" transform="translate(63.623047 0)"/>
       <use xlink:href="#DejaVuSans-33" transform="translate(95.410156 0)"/>
       <use xlink:href="#DejaVuSans-35" transform="translate(159.033203 0)"/>
       <use xlink:href="#DejaVuSans-30" transform="translate(222.65625 0)"/>
      </g>
     </g>
    </g>
    <g id="ytick_10">
     <g id="line2d_44">
      <path d="M 55.11125 467.134314 
L 677.31 467.134314 
" clip-path="url(#p26940f98aa)" style="fill: none; stroke-dasharray: 2.96,1.28; stroke-dashoffset: 0; stroke: #b0b0b0; stroke-opacity: 0.3; stroke-width: 0.8"/>
     </g>
     <g id="line2d_45">
      <g>
       <use xlink:href="#me4e1777a3c" x="55.11125" y="467.134314" style="stroke: #000000"/>
      </g>
     </g>
     <g id="text_23">
      <!-- 0.375 -->
      <g style="fill: #0000ff" transform="translate(21.845938 470.553611) scale(0.09 -0.09)">
       <defs>
        <path id="DejaVuSans-37" d="M 525 4666 
L 3525 4666 
L 3525 4397 
L 1831 0 
L 1172 0 
L 2766 4134 
L 525 4134 
L 525 4666 
z
" transform="scale(0.015625)"/>
       </defs>
       <use xlink:href="#DejaVuSans-30"/>
       <use xlink:href="#DejaVuSans-2e" transform="translate(63.623047 0)"/>
       <use xlink:href="#DejaVuSans-33" transform="translate(95.410156 0)"/>
       <use xlink:href="#DejaVuSans-37" transform="translate(159.033203 0)"/>
       <use xlink:href="#DejaVuSans-35" transform="translate(222.65625 0)"/>
      </g>
     </g>
    </g>
    <g id="ytick_11">
     <g id="line2d_46">
      <path d="M 55.11125 448.262805 
L 677.31 448.262805 
" clip-path="url(#p26940f98aa)" style="fill: none; stroke-dasharray: 2.96,1.28; stroke-dashoffset: 0; stroke: #b0b0b0; stroke-opacity: 0.3; stroke-width: 0.8"/>
     </g>
     <g id="line2d_47">
      <g>
       <use xlink:href="#me4e1777a3c" x="55.11125" y="448.262805" style="stroke: #000000"/>
      </g>
     </g>
     <g id="text_24">
      <!-- 0.400 -->
      <g style="fill: #0000ff" transform="translate(21.845938 451.682101) scale(0.09 -0.09)">
       <use xlink:href="#DejaVuSans-30"/>
       <use xlink:href="#DejaVuSans-2e" transform="translate(63.623047 0)"/>
       <use xlink:href="#DejaVuSans-34" transform="translate(95.410156 0)"/>
       <use xlink:href="#DejaVuSans-30" transform="translate(159.033203 0)"/>
       <use xlink:href="#DejaVuSans-30" transform="translate(222.65625 0)"/>
      </g>
     </g>
    </g>
    <g id="ytick_12">
     <g id="line2d_48">
      <path d="M 55.11125 429.391295 
L 677.31 429.391295 
" clip-path="url(#p26940f98aa)" style="fill: none; stroke-dasharray: 2.96,1.28; stroke-dashoffset: 0; stroke: #b0b0b0; stroke-opacity: 0.3; stroke-width: 0.8"/>
     </g>
     <g id="line2d_49">
      <g>
       <use xlink:href="#me4e1777a3c" x="55.11125" y="429.391295" style="stroke: #000000"/>
      </g>
     </g>
     <g id="text_25">
      <!-- 0.425 -->
      <g style="fill: #0000ff" transform="translate(21.845938 432.810592) scale(0.09 -0.09)">
       <use xlink:href="#DejaVuSans-30"/>
       <use xlink:href="#DejaVuSans-2e" transform="translate(63.623047 0)"/>
       <use xlink:href="#DejaVuSans-34" transform="translate(95.410156 0)"/>
       <use xlink:href="#DejaVuSans-32" transform="translate(159.033203 0)"/>
       <use xlink:href="#DejaVuSans-35" transform="translate(222.65625 0)"/>
      </g>
     </g>
    </g>
    <g id="ytick_13">
     <g id="line2d_50">
      <path d="M 55.11125 410.519785 
L 677.31 410.519785 
" clip-path="url(#p26940f98aa)" style="fill: none; stroke-dasharray: 2.96,1.28; stroke-dashoffset: 0; stroke: #b0b0b0; stroke-opacity: 0.3; stroke-width: 0.8"/>
     </g>
     <g id="line2d_51">
      <g>
       <use xlink:href="#me4e1777a3c" x="55.11125" y="410.519785" style="stroke: #000000"/>
      </g>
     </g>
     <g id="text_26">
      <!-- 0.450 -->
      <g style="fill: #0000ff" transform="translate(21.845938 413.939082) scale(0.09 -0.09)">
       <use xlink:href="#DejaVuSans-30"/>
       <use xlink:href="#DejaVuSans-2e" transform="translate(63.623047 0)"/>
       <use xlink:href="#DejaVuSans-34" transform="translate(95.410156 0)"/>
       <use xlink:href="#DejaVuSans-35" transform="translate(159.033203 0)"/>
       <use xlink:href="#DejaVuSans-30" transform="translate(222.65625 0)"/>
      </g>
     </g>
    </g>
    <g id="ytick_14">
     <g id="line2d_52">
      <path d="M 55.11125 391.648276 
L 677.31 391.648276 
" clip-path="url(#p26940f98aa)" style="fill: none; stroke-dasharray: 2.96,1.28; stroke-dashoffset: 0; stroke: #b0b0b0; stroke-opacity: 0.3; stroke-width: 0.8"/>
     </g>
     <g id="line2d_53">
      <g>
       <use xlink:href="#me4e1777a3c" x="55.11125" y="391.648276" style="stroke: #000000"/>
      </g>
     </g>
     <g id="text_27">
      <!-- 0.475 -->
      <g style="fill: #0000ff" transform="translate(21.845938 395.067573) scale(0.09 -0.09)">
       <use xlink:href="#DejaVuSans-30"/>
       <use xlink:href="#DejaVuSans-2e" transform="translate(63.623047 0)"/>
       <use xlink:href="#DejaVuSans-34" transform="translate(95.410156 0)"/>
       <use xlink:href="#DejaVuSans-37" transform="translate(159.033203 0)"/>
       <use xlink:href="#DejaVuSans-35" transform="translate(222.65625 0)"/>
      </g>
     </g>
    </g>
    <g id="ytick_15">
     <g id="line2d_54">
      <path d="M 55.11125 372.776766 
L 677.31 372.776766 
" clip-path="url(#p26940f98aa)" style="fill: none; stroke-dasharray: 2.96,1.28; stroke-dashoffset: 0; stroke: #b0b0b0; stroke-opacity: 0.3; stroke-width: 0.8"/>
     </g>
     <g id="line2d_55">
      <g>
       <use xlink:href="#me4e1777a3c" x="55.11125" y="372.776766" style="stroke: #000000"/>
      </g>
     </g>
     <g id="text_28">
      <!-- 0.500 -->
      <g style="fill: #0000ff" transform="translate(21.845938 376.196063) scale(0.09 -0.09)">
       <use xlink:href="#DejaVuSans-30"/>
       <use xlink:href="#DejaVuSans-2e" transform="translate(63.623047 0)"/>
       <use xlink:href="#DejaVuSans-35" transform="translate(95.410156 0)"/>
       <use xlink:href="#DejaVuSans-30" transform="translate(159.033203 0)"/>
       <use xlink:href="#DejaVuSans-30" transform="translate(222.65625 0)"/>
      </g>
     </g>
    </g>
    <g id="text_29">
     <!-- Moisture -->
     <g style="fill: #0000ff" transform="translate(15.558281 470.905528) rotate(-90) scale(0.11 -0.11)">
      <defs>
       <path id="DejaVuSans-4d" d="M 628 4666 
L 1569 4666 
L 2759 1491 
L 3956 4666 
L 4897 4666 
L 4897 0 
L 4281 0 
L 4281 4097 
L 3078 897 
L 2444 897 
L 1241 4097 
L 1241 0 
L 628 0 
L 628 4666 
z
" transform="scale(0.015625)"/>
      </defs>
      <use xlink:href="#DejaVuSans-4d"/>
      <use xlink:href="#DejaVuSans-6f" transform="translate(86.279297 0)"/>
      <use xlink:href="#DejaVuSans-69" transform="translate(147.460938 0)"/>
      <use xlink:href="#DejaVuSans-73" transform="translate(175.244141 0)"/>
      <use xlink:href="#DejaVuSans-74" transform="translate(227.34375 0)"/>
      <use xlink:href="#DejaVuSans-75" transform="translate(266.552734 0)"/>
      <use xlink:href="#DejaVuSans-72" transform="translate(329.931641 0)"/>
      <use xlink:href="#DejaVuSans-65" transform="translate(368.794922 0)"/>
     </g>
    </g>
   </g>
   <g id="line2d_56">
    <path d="M 83.393011 453.911408 
L 94.936587 396.891136 
L 106.480163 404.867229 
L 118.02374 402.904464 
L 129.567316 417.88179 
L 141.110892 512.688149 
L 152.654468 504.015938 
L 164.198044 480.902525 
L 175.74162 455.07931 
L 187.285196 420.819821 
L 198.828772 511.402614 
L 210.372348 389.185913 
L 221.915924 516.228403 
L 233.4595 512.966055 
L 245.003076 393.473208 
L 256.546652 516.273681 
L 268.090228 521.052283 
L 279.633804 497.906318 
L 291.177381 475.621903 
L 302.720957 426.021049 
L 314.264533 514.604907 
L 325.808109 499.377882 
L 337.351685 398.334993 
L 348.895261 419.516886 
L 360.438837 448.026469 
L 371.982413 399.744571 
L 383.525989 482.23566 
L 395.069565 451.403264 
L 406.613141 480.150892 
L 418.156717 404.009581 
L 429.700293 469.617011 
L 441.243869 464.332453 
L 452.787446 504.643621 
L 464.331022 494.396766 
L 475.874598 470.797922 
L 487.418174 506.685102 
L 498.96175 488.830684 
L 510.505326 521.547236 
L 522.048902 520.110643 
L 533.592478 502.544672 
L 545.136054 411.767447 
L 556.67963 480.405781 
L 568.223206 372.929446 
L 579.766782 445.950245 
L 591.310358 429.906396 
L 602.853934 507.033763 
L 614.39751 421.670577 
L 625.941087 496.101793 
L 637.484663 455.011316 
L 649.028239 459.561042 
" clip-path="url(#p26940f98aa)" style="fill: none; stroke: #0000ff; stroke-width: 2; stroke-linecap: square"/>
   </g>
   <g id="patch_11">
    <path d="M 55.11125 528.978125 
L 55.11125 365.498557 
" style="fill: none; stroke: #000000; stroke-linejoin: miter; stroke-linecap: square"/>
   </g>
   <g id="patch_12">
    <path d="M 55.11125 528.978125 
L 677.31 528.978125 
" style="fill: none; stroke: #000000; stroke-linejoin: miter; stroke-linecap: square"/>
   </g>
  </g>
  <g id="axes_3">
   <g id="matplotlib.axis_5">
    <g id="ytick_16">
     <g id="line2d_57">
      <path d="M 55.11125 526.928832 
L 677.31 526.928832 
" clip-path="url(#p26940f98aa)" style="fill: none; stroke-dasharray: 2.96,1.28; stroke-dashoffset: 0; stroke: #b0b0b0; stroke-opacity: 0.3; stroke-width: 0.8"/>
     </g>
     <g id="line2d_58">
      <defs>
       <path id="m69c2fcd947" d="M 0 0 
L 4 0 
" style="stroke: #000000"/>
      </defs>
      <g>
       <use xlink:href="#m69c2fcd947" x="677.31" y="526.928832" style="stroke: #000000"/>
      </g>
     </g>
     <g id="text_30">
      <!-- 25 -->
      <g style="fill: #ff0000" transform="translate(684.81 530.348129) scale(0.09 -0.09)">
       <use xlink:href="#DejaVuSans-32"/>
       <use xlink:href="#DejaVuSans-35" transform="translate(63.623047 0)"/>
      </g>
     </g>
    </g>
    <g id="ytick_17">
     <g id="line2d_59">
      <path d="M 55.11125 495.172798 
L 677.31 495.172798 
" clip-path="url(#p26940f98aa)" style="fill: none; stroke-dasharray: 2.96,1.28; stroke-dashoffset: 0; stroke: #b0b0b0; stroke-opacity: 0.3; stroke-width: 0.8"/>
     </g>
     <g id="line2d_60">
      <g>
       <use xlink:href="#m69c2fcd947" x="677.31" y="495.172798" style="stroke: #000000"/>
      </g>
     </g>
     <g id="text_31">
      <!-- 26 -->
      <g style="fill: #ff0000" transform="translate(684.81 498.592095) scale(0.09 -0.09)">
       <defs>
        <path id="DejaVuSans-36" d="M 2113 2584 
Q 1688 2584 1439 2293 
Q 1191 2003 1191 1497 
Q 1191 994 1439 701 
Q 1688 409 2113 409 
Q 2538 409 2786 701 
Q 3034 994 3034 1497 
Q 3034 2003 2786 2293 
Q 2538 2584 2113 2584 
z
M 3366 4563 
L 3366 3988 
Q 3128 4100 2886 4159 
Q 2644 4219 2406 4219 
Q 1781 4219 1451 3797 
Q 1122 3375 1075 2522 
Q 1259 2794 1537 2939 
Q 1816 3084 2150 3084 
Q 2853 3084 3261 2657 
Q 3669 2231 3669 1497 
Q 3669 778 3244 343 
Q 2819 -91 2113 -91 
Q 1303 -91 875 529 
Q 447 1150 447 2328 
Q 447 3434 972 4092 
Q 1497 4750 2381 4750 
Q 2619 4750 2861 4703 
Q 3103 4656 3366 4563 
z
" transform="scale(0.015625)"/>
       </defs>
       <use xlink:href="#DejaVuSans-32"/>
       <use xlink:href="#DejaVuSans-36" transform="translate(63.623047 0)"/>
      </g>
     </g>
    </g>
    <g id="ytick_18">
     <g id="line2d_61">
      <path d="M 55.11125 463.416763 
L 677.31 463.416763 
" clip-path="url(#p26940f98aa)" style="fill: none; stroke-dasharray: 2.96,1.28; stroke-dashoffset: 0; stroke: #b0b0b0; stroke-opacity: 0.3; stroke-width: 0.8"/>
     </g>
     <g id="line2d_62">
      <g>
       <use xlink:href="#m69c2fcd947" x="677.31" y="463.416763" style="stroke: #000000"/>
      </g>
     </g>
     <g id="text_32">
      <!-- 27 -->
      <g style="fill: #ff0000" transform="translate(684.81 466.83606) scale(0.09 -0.09)">
       <use xlink:href="#DejaVuSans-32"/>
       <use xlink:href="#DejaVuSans-37" transform="translate(63.623047 0)"/>
      </g>
     </g>
    </g>
    <g id="ytick_19">
     <g id="line2d_63">
      <path d="M 55.11125 431.660728 
L 677.31 431.660728 
" clip-path="url(#p26940f98aa)" style="fill: none; stroke-dasharray: 2.96,1.28; stroke-dashoffset: 0; stroke: #b0b0b0; stroke-opacity: 0.3; stroke-width: 0.8"/>
     </g>
     <g id="line2d_64">
      <g>
       <use xlink:href="#m69c2fcd947" x="677.31" y="431.660728" style="stroke: #000000"/>
      </g>
     </g>
     <g id="text_33">
      <!-- 28 -->
      <g style="fill: #ff0000" transform="translate(684.81 435.080025) scale(0.09 -0.09)">
       <defs>
        <path id="DejaVuSans-38" d="M 2034 2216 
Q 1584 2216 1326 1975 
Q 1069 1734 1069 1313 
Q 1069 891 1326 650 
Q 1584 409 2034 409 
Q 2484 409 2743 651 
Q 3003 894 3003 1313 
Q 3003 1734 2745 1975 
Q 2488 2216 2034 2216 
z
M 1403 2484 
Q 997 2584 770 2862 
Q 544 3141 544 3541 
Q 544 4100 942 4425 
Q 1341 4750 2034 4750 
Q 2731 4750 3128 4425 
Q 3525 4100 3525 3541 
Q 3525 3141 3298 2862 
Q 3072 2584 2669 2484 
Q 3125 2378 3379 2068 
Q 3634 1759 3634 1313 
Q 3634 634 3220 271 
Q 2806 -91 2034 -91 
Q 1263 -91 848 271 
Q 434 634 434 1313 
Q 434 1759 690 2068 
Q 947 2378 1403 2484 
z
M 1172 3481 
Q 1172 3119 1398 2916 
Q 1625 2713 2034 2713 
Q 2441 2713 2670 2916 
Q 2900 3119 2900 3481 
Q 2900 3844 2670 4047 
Q 2441 4250 2034 4250 
Q 1625 4250 1398 4047 
Q 1172 3844 1172 3481 
z
" transform="scale(0.015625)"/>
       </defs>
       <use xlink:href="#DejaVuSans-32"/>
       <use xlink:href="#DejaVuSans-38" transform="translate(63.623047 0)"/>
      </g>
     </g>
    </g>
    <g id="ytick_20">
     <g id="line2d_65">
      <path d="M 55.11125 399.904694 
L 677.31 399.904694 
" clip-path="url(#p26940f98aa)" style="fill: none; stroke-dasharray: 2.96,1.28; stroke-dashoffset: 0; stroke: #b0b0b0; stroke-opacity: 0.3; stroke-width: 0.8"/>
     </g>
     <g id="line2d_66">
      <g>
       <use xlink:href="#m69c2fcd947" x="677.31" y="399.904694" style="stroke: #000000"/>
      </g>
     </g>
     <g id="text_34">
      <!-- 29 -->
      <g style="fill: #ff0000" transform="translate(684.81 403.323991) scale(0.09 -0.09)">
       <defs>
        <path id="DejaVuSans-39" d="M 703 97 
L 703 672 
Q 941 559 1184 500 
Q 1428 441 1663 441 
Q 2288 441 2617 861 
Q 2947 1281 2994 2138 
Q 2813 1869 2534 1725 
Q 2256 1581 1919 1581 
Q 1219 1581 811 2004 
Q 403 2428 403 3163 
Q 403 3881 828 4315 
Q 1253 4750 1959 4750 
Q 2769 4750 3195 4129 
Q 3622 3509 3622 2328 
Q 3622 1225 3098 567 
Q 2575 -91 1691 -91 
Q 1453 -91 1209 -44 
Q 966 3 703 97 
z
M 1959 2075 
Q 2384 2075 2632 2365 
Q 2881 2656 2881 3163 
Q 2881 3666 2632 3958 
Q 2384 4250 1959 4250 
Q 1534 4250 1286 3958 
Q 1038 3666 1038 3163 
Q 1038 2656 1286 2365 
Q 1534 2075 1959 2075 
z
" transform="scale(0.015625)"/>
       </defs>
       <use xlink:href="#DejaVuSans-32"/>
       <use xlink:href="#DejaVuSans-39" transform="translate(63.623047 0)"/>
      </g>
     </g>
    </g>
    <g id="ytick_21">
     <g id="line2d_67">
      <path d="M 55.11125 368.148659 
L 677.31 368.148659 
" clip-path="url(#p26940f98aa)" style="fill: none; stroke-dasharray: 2.96,1.28; stroke-dashoffset: 0; stroke: #b0b0b0; stroke-opacity: 0.3; stroke-width: 0.8"/>
     </g>
     <g id="line2d_68">
      <g>
       <use xlink:href="#m69c2fcd947" x="677.31" y="368.148659" style="stroke: #000000"/>
      </g>
     </g>
     <g id="text_35">
      <!-- 30 -->
      <g style="fill: #ff0000" transform="translate(684.81 371.567956) scale(0.09 -0.09)">
       <use xlink:href="#DejaVuSans-33"/>
       <use xlink:href="#DejaVuSans-30" transform="translate(63.623047 0)"/>
      </g>
     </g>
    </g>
    <g id="text_36">
     <!-- Temperature (C) -->
     <g style="fill: #ff0000" transform="translate(708.620781 494.70506) rotate(-90) scale(0.11 -0.11)">
      <defs>
       <path id="DejaVuSans-b0" d="M 1600 4347 
Q 1350 4347 1178 4173 
Q 1006 4000 1006 3750 
Q 1006 3503 1178 3333 
Q 1350 3163 1600 3163 
Q 1850 3163 2022 3333 
Q 2194 3503 2194 3750 
Q 2194 3997 2020 4172 
Q 1847 4347 1600 4347 
z
M 1600 4750 
Q 1800 4750 1984 4673 
Q 2169 4597 2303 4453 
Q 2447 4313 2519 4134 
Q 2591 3956 2591 3750 
Q 2591 3338 2302 3052 
Q 2013 2766 1594 2766 
Q 1172 2766 890 3047 
Q 609 3328 609 3750 
Q 609 4169 896 4459 
Q 1184 4750 1600 4750 
z
" transform="scale(0.015625)"/>
      </defs>
      <use xlink:href="#DejaVuSans-54"/>
      <use xlink:href="#DejaVuSans-65" transform="translate(44.083984 0)"/>
      <use xlink:href="#DejaVuSans-6d" transform="translate(105.607422 0)"/>
      <use xlink:href="#DejaVuSans-70" transform="translate(203.019531 0)"/>
      <use xlink:href="#DejaVuSans-65" transform="translate(266.496094 0)"/>
      <use xlink:href="#DejaVuSans-72" transform="translate(328.019531 0)"/>
      <use xlink:href="#DejaVuSans-61" transform="translate(369.132812 0)"/>
      <use xlink:href="#DejaVuSans-74" transform="translate(430.412109 0)"/>
      <use xlink:href="#DejaVuSans-75" transform="translate(469.621094 0)"/>
      <use xlink:href="#DejaVuSans-72" transform="translate(533 0)"/>
      <use xlink:href="#DejaVuSans-65" transform="translate(571.863281 0)"/>
      <use xlink:href="#DejaVuSans-20" transform="translate(633.386719 0)"/>
      <use xlink:href="#DejaVuSans-28" transform="translate(665.173828 0)"/>
      <use xlink:href="#DejaVuSans-b0" transform="translate(704.1875 0)"/>
      <use xlink:href="#DejaVuSans-43" transform="translate(754.1875 0)"/>
      <use xlink:href="#DejaVuSans-29" transform="translate(824.011719 0)"/>
     </g>
    </g>
   </g>
   <g id="line2d_69">
    <path d="M 83.393011 444.291297 
L 94.936587 402.273011 
L 106.480163 444.579359 
L 118.02374 374.82517 
L 129.567316 461.76524 
L 141.110892 374.044503 
L 152.654468 501.103475 
L 164.198044 402.635031 
L 175.74162 499.707423 
L 187.285196 520.873834 
L 198.828772 410.214486 
L 210.372348 489.68329 
L 221.915924 443.342657 
L 233.4595 419.740732 
L 245.003076 512.253682 
L 256.546652 434.091357 
L 268.090228 504.599579 
L 279.633804 503.127759 
L 291.177381 479.460529 
L 302.720957 485.175524 
L 314.264533 451.99129 
L 325.808109 427.253785 
L 337.351685 464.891621 
L 348.895261 453.188904 
L 360.438837 385.521354 
L 371.982413 488.619775 
L 383.525989 476.168166 
L 395.069565 503.076777 
L 406.613141 373.022438 
L 418.156717 521.547236 
L 429.700293 428.437159 
L 441.243869 399.190508 
L 452.787446 518.976983 
L 464.331022 389.100966 
L 475.874598 385.602286 
L 487.418174 402.758617 
L 498.96175 403.775092 
L 510.505326 517.495629 
L 522.048902 390.171213 
L 533.592478 466.118313 
L 545.136054 428.773984 
L 556.67963 410.10746 
L 568.223206 429.064865 
L 579.766782 479.214594 
L 591.310358 372.929446 
L 602.853934 498.84 
L 614.39751 392.692204 
L 625.941087 411.096028 
L 637.484663 506.210073 
L 649.028239 515.482997 
" clip-path="url(#p26940f98aa)" style="fill: none; stroke: #ff0000; stroke-width: 2; stroke-linecap: square"/>
   </g>
   <g id="patch_13">
    <path d="M 55.11125 528.978125 
L 55.11125 365.498557 
" style="fill: none; stroke: #000000; stroke-linejoin: miter; stroke-linecap: square"/>
   </g>
   <g id="patch_14">
    <path d="M 55.11125 528.978125 
L 677.31 528.978125 
" style="fill: none; stroke: #000000; stroke-linejoin: miter; stroke-linecap: square"/>
   </g>
  </g>
 </g>
 <defs>
  <clipPath id="pd6d2d1c4ab">
   <rect x="55.11125" y="22.318125" width="622.19875" height="326.959137"/>
  </clipPath>
  <clipPath id="p26940f98aa">
   <rect x="55.11125" y="365.498557" width="622.19875" height="163.479568"/>
  </clipPath>
 </defs>
</svg>
