<?xml version="1.0" encoding="utf-8" standalone="no"?>
<!DOCTYPE svg PUBLIC "-//W3C//DTD SVG 1.1//EN"
  "http://www.w3.org/Graphics/SVG/1.1/DTD/svg11.dtd">
<svg xmlns:xlink="http://www.w3.org/1999/xlink" width="494.398438pt" height="295.81625pt" viewBox="0 0 494.398438 295.81625" xmlns="http://www.w3.org/2000/svg" version="1.1">
 <metadata>
  <rdf:RDF xmlns:dc="http://purl.org/dc/elements/1.1/" xmlns:cc="http://creativecommons.org/ns#" xmlns:rdf="http://www.w3.org/1999/02/22-rdf-syntax-ns#">
   <cc:Work>
    <dc:type rdf:resource="http://purl.org/dc/dcmitype/StillImage"/>
    <dc:date>2025-06-11T19:53:32.827667</dc:date>
    <dc:format>image/svg+xml</dc:format>
    <dc:creator>
     <cc:Agent>
      <dc:title>Matplotlib v3.10.3, https://matplotlib.org/</dc:title>
     </cc:Agent>
    </dc:creator>
   </cc:Work>
  </rdf:RDF>
 </metadata>
 <defs>
  <style type="text/css">*{stroke-linejoin: round; stroke-linecap: butt}</style>
 </defs>
 <g id="figure_1">
  <g id="patch_1">
   <path d="M 0 295.81625 
L 494.398438 295.81625 
L 494.398438 0 
L 0 0 
z
" style="fill: #ffffff"/>
  </g>
  <g id="axes_1">
   <g id="patch_2">
    <path d="M 40.798438 257.76 
L 234.885394 257.76 
L 234.885394 36 
L 40.798438 36 
z
" style="fill: #ffffff"/>
   </g>
   <g id="matplotlib.axis_1">
    <g id="xtick_1">
     <g id="line2d_1">
      <path d="M 65.660816 257.76 
L 65.660816 36 
" clip-path="url(#p77d08c471a)" style="fill: none; stroke-dasharray: 2.96,1.28; stroke-dashoffset: 0; stroke: #b0b0b0; stroke-opacity: 0.3; stroke-width: 0.8"/>
     </g>
     <g id="line2d_2">
      <defs>
       <path id="mc7ae59c174" d="M 0 0 
L 0 4 
" style="stroke: #000000"/>
      </defs>
      <g>
       <use xlink:href="#mc7ae59c174" x="65.660816" y="257.76" style="stroke: #000000"/>
      </g>
     </g>
     <g id="text_1">
      <!-- 2 -->
      <g transform="translate(62.797691 272.098594) scale(0.09 -0.09)">
       <defs>
        <path id="DejaVuSans-32" d="M 1228 531 
L 3431 531 
L 3431 0 
L 469 0 
L 469 531 
Q 828 903 1448 1529 
Q 2069 2156 2228 2338 
Q 2531 2678 2651 2914 
Q 2772 3150 2772 3378 
Q 2772 3750 2511 3984 
Q 2250 4219 1831 4219 
Q 1534 4219 1204 4116 
Q 875 4013 500 3803 
L 500 4441 
Q 881 4594 1212 4672 
Q 1544 4750 1819 4750 
Q 2544 4750 2975 4387 
Q 3406 4025 3406 3419 
Q 3406 3131 3298 2873 
Q 3191 2616 2906 2266 
Q 2828 2175 2409 1742 
Q 1991 1309 1228 531 
z
" transform="scale(0.015625)"/>
       </defs>
       <use xlink:href="#DejaVuSans-32"/>
      </g>
     </g>
    </g>
    <g id="xtick_2">
     <g id="line2d_3">
      <path d="M 97.741305 257.76 
L 97.741305 36 
" clip-path="url(#p77d08c471a)" style="fill: none; stroke-dasharray: 2.96,1.28; stroke-dashoffset: 0; stroke: #b0b0b0; stroke-opacity: 0.3; stroke-width: 0.8"/>
     </g>
     <g id="line2d_4">
      <g>
       <use xlink:href="#mc7ae59c174" x="97.741305" y="257.76" style="stroke: #000000"/>
      </g>
     </g>
     <g id="text_2">
      <!-- 4 -->
      <g transform="translate(94.87818 272.098594) scale(0.09 -0.09)">
       <defs>
        <path id="DejaVuSans-34" d="M 2419 4116 
L 825 1625 
L 2419 1625 
L 2419 4116 
z
M 2253 4666 
L 3047 4666 
L 3047 1625 
L 3713 1625 
L 3713 1100 
L 3047 1100 
L 3047 0 
L 2419 0 
L 2419 1100 
L 313 1100 
L 313 1709 
L 2253 4666 
z
" transform="scale(0.015625)"/>
       </defs>
       <use xlink:href="#DejaVuSans-34"/>
      </g>
     </g>
    </g>
    <g id="xtick_3">
     <g id="line2d_5">
      <path d="M 129.821794 257.76 
L 129.821794 36 
" clip-path="url(#p77d08c471a)" style="fill: none; stroke-dasharray: 2.96,1.28; stroke-dashoffset: 0; stroke: #b0b0b0; stroke-opacity: 0.3; stroke-width: 0.8"/>
     </g>
     <g id="line2d_6">
      <g>
       <use xlink:href="#mc7ae59c174" x="129.821794" y="257.76" style="stroke: #000000"/>
      </g>
     </g>
     <g id="text_3">
      <!-- 6 -->
      <g transform="translate(126.958669 272.098594) scale(0.09 -0.09)">
       <defs>
        <path id="DejaVuSans-36" d="M 2113 2584 
Q 1688 2584 1439 2293 
Q 1191 2003 1191 1497 
Q 1191 994 1439 701 
Q 1688 409 2113 409 
Q 2538 409 2786 701 
Q 3034 994 3034 1497 
Q 3034 2003 2786 2293 
Q 2538 2584 2113 2584 
z
M 3366 4563 
L 3366 3988 
Q 3128 4100 2886 4159 
Q 2644 4219 2406 4219 
Q 1781 4219 1451 3797 
Q 1122 3375 1075 2522 
Q 1259 2794 1537 2939 
Q 1816 3084 2150 3084 
Q 2853 3084 3261 2657 
Q 3669 2231 3669 1497 
Q 3669 778 3244 343 
Q 2819 -91 2113 -91 
Q 1303 -91 875 529 
Q 447 1150 447 2328 
Q 447 3434 972 4092 
Q 1497 4750 2381 4750 
Q 2619 4750 2861 4703 
Q 3103 4656 3366 4563 
z
" transform="scale(0.015625)"/>
       </defs>
       <use xlink:href="#DejaVuSans-36"/>
      </g>
     </g>
    </g>
    <g id="xtick_4">
     <g id="line2d_7">
      <path d="M 161.902282 257.76 
L 161.902282 36 
" clip-path="url(#p77d08c471a)" style="fill: none; stroke-dasharray: 2.96,1.28; stroke-dashoffset: 0; stroke: #b0b0b0; stroke-opacity: 0.3; stroke-width: 0.8"/>
     </g>
     <g id="line2d_8">
      <g>
       <use xlink:href="#mc7ae59c174" x="161.902282" y="257.76" style="stroke: #000000"/>
      </g>
     </g>
     <g id="text_4">
      <!-- 8 -->
      <g transform="translate(159.039157 272.098594) scale(0.09 -0.09)">
       <defs>
        <path id="DejaVuSans-38" d="M 2034 2216 
Q 1584 2216 1326 1975 
Q 1069 1734 1069 1313 
Q 1069 891 1326 650 
Q 1584 409 2034 409 
Q 2484 409 2743 651 
Q 3003 894 3003 1313 
Q 3003 1734 2745 1975 
Q 2488 2216 2034 2216 
z
M 1403 2484 
Q 997 2584 770 2862 
Q 544 3141 544 3541 
Q 544 4100 942 4425 
Q 1341 4750 2034 4750 
Q 2731 4750 3128 4425 
Q 3525 4100 3525 3541 
Q 3525 3141 3298 2862 
Q 3072 2584 2669 2484 
Q 3125 2378 3379 2068 
Q 3634 1759 3634 1313 
Q 3634 634 3220 271 
Q 2806 -91 2034 -91 
Q 1263 -91 848 271 
Q 434 634 434 1313 
Q 434 1759 690 2068 
Q 947 2378 1403 2484 
z
M 1172 3481 
Q 1172 3119 1398 2916 
Q 1625 2713 2034 2713 
Q 2441 2713 2670 2916 
Q 2900 3119 2900 3481 
Q 2900 3844 2670 4047 
Q 2441 4250 2034 4250 
Q 1625 4250 1398 4047 
Q 1172 3844 1172 3481 
z
" transform="scale(0.015625)"/>
       </defs>
       <use xlink:href="#DejaVuSans-38"/>
      </g>
     </g>
    </g>
    <g id="xtick_5">
     <g id="line2d_9">
      <path d="M 193.982771 257.76 
L 193.982771 36 
" clip-path="url(#p77d08c471a)" style="fill: none; stroke-dasharray: 2.96,1.28; stroke-dashoffset: 0; stroke: #b0b0b0; stroke-opacity: 0.3; stroke-width: 0.8"/>
     </g>
     <g id="line2d_10">
      <g>
       <use xlink:href="#mc7ae59c174" x="193.982771" y="257.76" style="stroke: #000000"/>
      </g>
     </g>
     <g id="text_5">
      <!-- 10 -->
      <g transform="translate(188.256521 272.098594) scale(0.09 -0.09)">
       <defs>
        <path id="DejaVuSans-31" d="M 794 531 
L 1825 531 
L 1825 4091 
L 703 3866 
L 703 4441 
L 1819 4666 
L 2450 4666 
L 2450 531 
L 3481 531 
L 3481 0 
L 794 0 
L 794 531 
z
" transform="scale(0.015625)"/>
        <path id="DejaVuSans-30" d="M 2034 4250 
Q 1547 4250 1301 3770 
Q 1056 3291 1056 2328 
Q 1056 1369 1301 889 
Q 1547 409 2034 409 
Q 2525 409 2770 889 
Q 3016 1369 3016 2328 
Q 3016 3291 2770 3770 
Q 2525 4250 2034 4250 
z
M 2034 4750 
Q 2819 4750 3233 4129 
Q 3647 3509 3647 2328 
Q 3647 1150 3233 529 
Q 2819 -91 2034 -91 
Q 1250 -91 836 529 
Q 422 1150 422 2328 
Q 422 3509 836 4129 
Q 1250 4750 2034 4750 
z
" transform="scale(0.015625)"/>
       </defs>
       <use xlink:href="#DejaVuSans-31"/>
       <use xlink:href="#DejaVuSans-30" transform="translate(63.623047 0)"/>
      </g>
     </g>
    </g>
    <g id="xtick_6">
     <g id="line2d_11">
      <path d="M 226.06326 257.76 
L 226.06326 36 
" clip-path="url(#p77d08c471a)" style="fill: none; stroke-dasharray: 2.96,1.28; stroke-dashoffset: 0; stroke: #b0b0b0; stroke-opacity: 0.3; stroke-width: 0.8"/>
     </g>
     <g id="line2d_12">
      <g>
       <use xlink:href="#mc7ae59c174" x="226.06326" y="257.76" style="stroke: #000000"/>
      </g>
     </g>
     <g id="text_6">
      <!-- 12 -->
      <g transform="translate(220.33701 272.098594) scale(0.09 -0.09)">
       <use xlink:href="#DejaVuSans-31"/>
       <use xlink:href="#DejaVuSans-32" transform="translate(63.623047 0)"/>
      </g>
     </g>
    </g>
    <g id="text_7">
     <!-- Distance -->
     <g transform="translate(113.793166 286.328594) scale(0.11 -0.11)">
      <defs>
       <path id="DejaVuSans-44" d="M 1259 4147 
L 1259 519 
L 2022 519 
Q 2988 519 3436 956 
Q 3884 1394 3884 2338 
Q 3884 3275 3436 3711 
Q 2988 4147 2022 4147 
L 1259 4147 
z
M 628 4666 
L 1925 4666 
Q 3281 4666 3915 4102 
Q 4550 3538 4550 2338 
Q 4550 1131 3912 565 
Q 3275 0 1925 0 
L 628 0 
L 628 4666 
z
" transform="scale(0.015625)"/>
       <path id="DejaVuSans-69" d="M 603 3500 
L 1178 3500 
L 1178 0 
L 603 0 
L 603 3500 
z
M 603 4863 
L 1178 4863 
L 1178 4134 
L 603 4134 
L 603 4863 
z
" transform="scale(0.015625)"/>
       <path id="DejaVuSans-73" d="M 2834 3397 
L 2834 2853 
Q 2591 2978 2328 3040 
Q 2066 3103 1784 3103 
Q 1356 3103 1142 2972 
Q 928 2841 928 2578 
Q 928 2378 1081 2264 
Q 1234 2150 1697 2047 
L 1894 2003 
Q 2506 1872 2764 1633 
Q 3022 1394 3022 966 
Q 3022 478 2636 193 
Q 2250 -91 1575 -91 
Q 1294 -91 989 -36 
Q 684 19 347 128 
L 347 722 
Q 666 556 975 473 
Q 1284 391 1588 391 
Q 1994 391 2212 530 
Q 2431 669 2431 922 
Q 2431 1156 2273 1281 
Q 2116 1406 1581 1522 
L 1381 1569 
Q 847 1681 609 1914 
Q 372 2147 372 2553 
Q 372 3047 722 3315 
Q 1072 3584 1716 3584 
Q 2034 3584 2315 3537 
Q 2597 3491 2834 3397 
z
" transform="scale(0.015625)"/>
       <path id="DejaVuSans-74" d="M 1172 4494 
L 1172 3500 
L 2356 3500 
L 2356 3053 
L 1172 3053 
L 1172 1153 
Q 1172 725 1289 603 
Q 1406 481 1766 481 
L 2356 481 
L 2356 0 
L 1766 0 
Q 1100 0 847 248 
Q 594 497 594 1153 
L 594 3053 
L 172 3053 
L 172 3500 
L 594 3500 
L 594 4494 
L 1172 4494 
z
" transform="scale(0.015625)"/>
       <path id="DejaVuSans-61" d="M 2194 1759 
Q 1497 1759 1228 1600 
Q 959 1441 959 1056 
Q 959 750 1161 570 
Q 1363 391 1709 391 
Q 2188 391 2477 730 
Q 2766 1069 2766 1631 
L 2766 1759 
L 2194 1759 
z
M 3341 1997 
L 3341 0 
L 2766 0 
L 2766 531 
Q 2569 213 2275 61 
Q 1981 -91 1556 -91 
Q 1019 -91 701 211 
Q 384 513 384 1019 
Q 384 1609 779 1909 
Q 1175 2209 1959 2209 
L 2766 2209 
L 2766 2266 
Q 2766 2663 2505 2880 
Q 2244 3097 1772 3097 
Q 1472 3097 1187 3025 
Q 903 2953 641 2809 
L 641 3341 
Q 956 3463 1253 3523 
Q 1550 3584 1831 3584 
Q 2591 3584 2966 3190 
Q 3341 2797 3341 1997 
z
" transform="scale(0.015625)"/>
       <path id="DejaVuSans-6e" d="M 3513 2113 
L 3513 0 
L 2938 0 
L 2938 2094 
Q 2938 2591 2744 2837 
Q 2550 3084 2163 3084 
Q 1697 3084 1428 2787 
Q 1159 2491 1159 1978 
L 1159 0 
L 581 0 
L 581 3500 
L 1159 3500 
L 1159 2956 
Q 1366 3272 1645 3428 
Q 1925 3584 2291 3584 
Q 2894 3584 3203 3211 
Q 3513 2838 3513 2113 
z
" transform="scale(0.015625)"/>
       <path id="DejaVuSans-63" d="M 3122 3366 
L 3122 2828 
Q 2878 2963 2633 3030 
Q 2388 3097 2138 3097 
Q 1578 3097 1268 2742 
Q 959 2388 959 1747 
Q 959 1106 1268 751 
Q 1578 397 2138 397 
Q 2388 397 2633 464 
Q 2878 531 3122 666 
L 3122 134 
Q 2881 22 2623 -34 
Q 2366 -91 2075 -91 
Q 1284 -91 818 406 
Q 353 903 353 1747 
Q 353 2603 823 3093 
Q 1294 3584 2113 3584 
Q 2378 3584 2631 3529 
Q 2884 3475 3122 3366 
z
" transform="scale(0.015625)"/>
       <path id="DejaVuSans-65" d="M 3597 1894 
L 3597 1613 
L 953 1613 
Q 991 1019 1311 708 
Q 1631 397 2203 397 
Q 2534 397 2845 478 
Q 3156 559 3463 722 
L 3463 178 
Q 3153 47 2828 -22 
Q 2503 -91 2169 -91 
Q 1331 -91 842 396 
Q 353 884 353 1716 
Q 353 2575 817 3079 
Q 1281 3584 2069 3584 
Q 2775 3584 3186 3129 
Q 3597 2675 3597 1894 
z
M 3022 2063 
Q 3016 2534 2758 2815 
Q 2500 3097 2075 3097 
Q 1594 3097 1305 2825 
Q 1016 2553 972 2059 
L 3022 2063 
z
" transform="scale(0.015625)"/>
      </defs>
      <use xlink:href="#DejaVuSans-44"/>
      <use xlink:href="#DejaVuSans-69" transform="translate(77.001953 0)"/>
      <use xlink:href="#DejaVuSans-73" transform="translate(104.785156 0)"/>
      <use xlink:href="#DejaVuSans-74" transform="translate(156.884766 0)"/>
      <use xlink:href="#DejaVuSans-61" transform="translate(196.09375 0)"/>
      <use xlink:href="#DejaVuSans-6e" transform="translate(257.373047 0)"/>
      <use xlink:href="#DejaVuSans-63" transform="translate(320.751953 0)"/>
      <use xlink:href="#DejaVuSans-65" transform="translate(375.732422 0)"/>
     </g>
    </g>
   </g>
   <g id="matplotlib.axis_2">
    <g id="ytick_1">
     <g id="line2d_13">
      <path d="M 40.798438 247.68 
L 234.885394 247.68 
" clip-path="url(#p77d08c471a)" style="fill: none; stroke-dasharray: 2.96,1.28; stroke-dashoffset: 0; stroke: #b0b0b0; stroke-opacity: 0.3; stroke-width: 0.8"/>
     </g>
     <g id="line2d_14">
      <defs>
       <path id="m896644db6f" d="M 0 0 
L -4 0 
" style="stroke: #000000"/>
      </defs>
      <g>
       <use xlink:href="#m896644db6f" x="40.798438" y="247.68" style="stroke: #000000"/>
      </g>
     </g>
     <g id="text_8">
      <!-- 0 -->
      <g transform="translate(27.572188 251.099297) scale(0.09 -0.09)">
       <use xlink:href="#DejaVuSans-30"/>
      </g>
     </g>
    </g>
    <g id="ytick_2">
     <g id="line2d_15">
      <path d="M 40.798438 212.874063 
L 234.885394 212.874063 
" clip-path="url(#p77d08c471a)" style="fill: none; stroke-dasharray: 2.96,1.28; stroke-dashoffset: 0; stroke: #b0b0b0; stroke-opacity: 0.3; stroke-width: 0.8"/>
     </g>
     <g id="line2d_16">
      <g>
       <use xlink:href="#m896644db6f" x="40.798438" y="212.874063" style="stroke: #000000"/>
      </g>
     </g>
     <g id="text_9">
      <!-- 2 -->
      <g transform="translate(27.572188 216.293359) scale(0.09 -0.09)">
       <use xlink:href="#DejaVuSans-32"/>
      </g>
     </g>
    </g>
    <g id="ytick_3">
     <g id="line2d_17">
      <path d="M 40.798438 178.068125 
L 234.885394 178.068125 
" clip-path="url(#p77d08c471a)" style="fill: none; stroke-dasharray: 2.96,1.28; stroke-dashoffset: 0; stroke: #b0b0b0; stroke-opacity: 0.3; stroke-width: 0.8"/>
     </g>
     <g id="line2d_18">
      <g>
       <use xlink:href="#m896644db6f" x="40.798438" y="178.068125" style="stroke: #000000"/>
      </g>
     </g>
     <g id="text_10">
      <!-- 4 -->
      <g transform="translate(27.572188 181.487422) scale(0.09 -0.09)">
       <use xlink:href="#DejaVuSans-34"/>
      </g>
     </g>
    </g>
    <g id="ytick_4">
     <g id="line2d_19">
      <path d="M 40.798438 143.262188 
L 234.885394 143.262188 
" clip-path="url(#p77d08c471a)" style="fill: none; stroke-dasharray: 2.96,1.28; stroke-dashoffset: 0; stroke: #b0b0b0; stroke-opacity: 0.3; stroke-width: 0.8"/>
     </g>
     <g id="line2d_20">
      <g>
       <use xlink:href="#m896644db6f" x="40.798438" y="143.262188" style="stroke: #000000"/>
      </g>
     </g>
     <g id="text_11">
      <!-- 6 -->
      <g transform="translate(27.572188 146.681485) scale(0.09 -0.09)">
       <use xlink:href="#DejaVuSans-36"/>
      </g>
     </g>
    </g>
    <g id="ytick_5">
     <g id="line2d_21">
      <path d="M 40.798438 108.45625 
L 234.885394 108.45625 
" clip-path="url(#p77d08c471a)" style="fill: none; stroke-dasharray: 2.96,1.28; stroke-dashoffset: 0; stroke: #b0b0b0; stroke-opacity: 0.3; stroke-width: 0.8"/>
     </g>
     <g id="line2d_22">
      <g>
       <use xlink:href="#m896644db6f" x="40.798438" y="108.45625" style="stroke: #000000"/>
      </g>
     </g>
     <g id="text_12">
      <!-- 8 -->
      <g transform="translate(27.572188 111.875547) scale(0.09 -0.09)">
       <use xlink:href="#DejaVuSans-38"/>
      </g>
     </g>
    </g>
    <g id="ytick_6">
     <g id="line2d_23">
      <path d="M 40.798438 73.650313 
L 234.885394 73.650313 
" clip-path="url(#p77d08c471a)" style="fill: none; stroke-dasharray: 2.96,1.28; stroke-dashoffset: 0; stroke: #b0b0b0; stroke-opacity: 0.3; stroke-width: 0.8"/>
     </g>
     <g id="line2d_24">
      <g>
       <use xlink:href="#m896644db6f" x="40.798438" y="73.650313" style="stroke: #000000"/>
      </g>
     </g>
     <g id="text_13">
      <!-- 10 -->
      <g transform="translate(21.845938 77.06961) scale(0.09 -0.09)">
       <use xlink:href="#DejaVuSans-31"/>
       <use xlink:href="#DejaVuSans-30" transform="translate(63.623047 0)"/>
      </g>
     </g>
    </g>
    <g id="ytick_7">
     <g id="line2d_25">
      <path d="M 40.798438 38.844376 
L 234.885394 38.844376 
" clip-path="url(#p77d08c471a)" style="fill: none; stroke-dasharray: 2.96,1.28; stroke-dashoffset: 0; stroke: #b0b0b0; stroke-opacity: 0.3; stroke-width: 0.8"/>
     </g>
     <g id="line2d_26">
      <g>
       <use xlink:href="#m896644db6f" x="40.798438" y="38.844376" style="stroke: #000000"/>
      </g>
     </g>
     <g id="text_14">
      <!-- 12 -->
      <g transform="translate(21.845938 42.263672) scale(0.09 -0.09)">
       <use xlink:href="#DejaVuSans-31"/>
       <use xlink:href="#DejaVuSans-32" transform="translate(63.623047 0)"/>
      </g>
     </g>
    </g>
    <g id="text_15">
     <!-- g(r) - 1 -->
     <g transform="translate(15.558281 165.903984) rotate(-90) scale(0.11 -0.11)">
      <defs>
       <path id="DejaVuSans-67" d="M 2906 1791 
Q 2906 2416 2648 2759 
Q 2391 3103 1925 3103 
Q 1463 3103 1205 2759 
Q 947 2416 947 1791 
Q 947 1169 1205 825 
Q 1463 481 1925 481 
Q 2391 481 2648 825 
Q 2906 1169 2906 1791 
z
M 3481 434 
Q 3481 -459 3084 -895 
Q 2688 -1331 1869 -1331 
Q 1566 -1331 1297 -1286 
Q 1028 -1241 775 -1147 
L 775 -588 
Q 1028 -725 1275 -790 
Q 1522 -856 1778 -856 
Q 2344 -856 2625 -561 
Q 2906 -266 2906 331 
L 2906 616 
Q 2728 306 2450 153 
Q 2172 0 1784 0 
Q 1141 0 747 490 
Q 353 981 353 1791 
Q 353 2603 747 3093 
Q 1141 3584 1784 3584 
Q 2172 3584 2450 3431 
Q 2728 3278 2906 2969 
L 2906 3500 
L 3481 3500 
L 3481 434 
z
" transform="scale(0.015625)"/>
       <path id="DejaVuSans-28" d="M 1984 4856 
Q 1566 4138 1362 3434 
Q 1159 2731 1159 2009 
Q 1159 1288 1364 580 
Q 1569 -128 1984 -844 
L 1484 -844 
Q 1016 -109 783 600 
Q 550 1309 550 2009 
Q 550 2706 781 3412 
Q 1013 4119 1484 4856 
L 1984 4856 
z
" transform="scale(0.015625)"/>
       <path id="DejaVuSans-72" d="M 2631 2963 
Q 2534 3019 2420 3045 
Q 2306 3072 2169 3072 
Q 1681 3072 1420 2755 
Q 1159 2438 1159 1844 
L 1159 0 
L 581 0 
L 581 3500 
L 1159 3500 
L 1159 2956 
Q 1341 3275 1631 3429 
Q 1922 3584 2338 3584 
Q 2397 3584 2469 3576 
Q 2541 3569 2628 3553 
L 2631 2963 
z
" transform="scale(0.015625)"/>
       <path id="DejaVuSans-29" d="M 513 4856 
L 1013 4856 
Q 1481 4119 1714 3412 
Q 1947 2706 1947 2009 
Q 1947 1309 1714 600 
Q 1481 -109 1013 -844 
L 513 -844 
Q 928 -128 1133 580 
Q 1338 1288 1338 2009 
Q 1338 2731 1133 3434 
Q 928 4138 513 4856 
z
" transform="scale(0.015625)"/>
       <path id="DejaVuSans-20" transform="scale(0.015625)"/>
       <path id="DejaVuSans-2d" d="M 313 2009 
L 1997 2009 
L 1997 1497 
L 313 1497 
L 313 2009 
z
" transform="scale(0.015625)"/>
      </defs>
      <use xlink:href="#DejaVuSans-67"/>
      <use xlink:href="#DejaVuSans-28" transform="translate(63.476562 0)"/>
      <use xlink:href="#DejaVuSans-72" transform="translate(102.490234 0)"/>
      <use xlink:href="#DejaVuSans-29" transform="translate(143.603516 0)"/>
      <use xlink:href="#DejaVuSans-20" transform="translate(182.617188 0)"/>
      <use xlink:href="#DejaVuSans-2d" transform="translate(214.404297 0)"/>
      <use xlink:href="#DejaVuSans-20" transform="translate(250.488281 0)"/>
      <use xlink:href="#DejaVuSans-31" transform="translate(282.275391 0)"/>
     </g>
    </g>
   </g>
   <g id="line2d_27">
    <path d="M 49.620572 46.08 
L 65.660816 51.787896 
L 81.701061 71.234187 
L 97.741305 59.265201 
L 113.781549 82.376581 
L 129.821794 70.189648 
L 145.862038 124.068101 
L 161.902282 128.093457 
L 177.942527 167.868334 
L 193.982771 178.133899 
L 210.023015 208.346448 
L 226.06326 217.082318 
" clip-path="url(#p77d08c471a)" style="fill: none; stroke: #0000ff; stroke-width: 2; stroke-linecap: square"/>
    <defs>
     <path id="mdf03285e61" d="M 0 3 
C 0.795609 3 1.55874 2.683901 2.12132 2.12132 
C 2.683901 1.55874 3 0.795609 3 0 
C 3 -0.795609 2.683901 -1.55874 2.12132 -2.12132 
C 1.55874 -2.683901 0.795609 -3 0 -3 
C -0.795609 -3 -1.55874 -2.683901 -2.12132 -2.12132 
C -2.683901 -1.55874 -3 -0.795609 -3 0 
C -3 0.795609 -2.683901 1.55874 -2.12132 2.12132 
C -1.55874 2.683901 -0.795609 3 0 3 
z
" style="stroke: #0000ff"/>
    </defs>
    <g clip-path="url(#p77d08c471a)">
     <use xlink:href="#mdf03285e61" x="49.620572" y="46.08" style="fill: #0000ff; stroke: #0000ff"/>
     <use xlink:href="#mdf03285e61" x="65.660816" y="51.787896" style="fill: #0000ff; stroke: #0000ff"/>
     <use xlink:href="#mdf03285e61" x="81.701061" y="71.234187" style="fill: #0000ff; stroke: #0000ff"/>
     <use xlink:href="#mdf03285e61" x="97.741305" y="59.265201" style="fill: #0000ff; stroke: #0000ff"/>
     <use xlink:href="#mdf03285e61" x="113.781549" y="82.376581" style="fill: #0000ff; stroke: #0000ff"/>
     <use xlink:href="#mdf03285e61" x="129.821794" y="70.189648" style="fill: #0000ff; stroke: #0000ff"/>
     <use xlink:href="#mdf03285e61" x="145.862038" y="124.068101" style="fill: #0000ff; stroke: #0000ff"/>
     <use xlink:href="#mdf03285e61" x="161.902282" y="128.093457" style="fill: #0000ff; stroke: #0000ff"/>
     <use xlink:href="#mdf03285e61" x="177.942527" y="167.868334" style="fill: #0000ff; stroke: #0000ff"/>
     <use xlink:href="#mdf03285e61" x="193.982771" y="178.133899" style="fill: #0000ff; stroke: #0000ff"/>
     <use xlink:href="#mdf03285e61" x="210.023015" y="208.346448" style="fill: #0000ff; stroke: #0000ff"/>
     <use xlink:href="#mdf03285e61" x="226.06326" y="217.082318" style="fill: #0000ff; stroke: #0000ff"/>
    </g>
   </g>
   <g id="line2d_28">
    <path d="M 40.798438 247.68 
L 234.885394 247.68 
" clip-path="url(#p77d08c471a)" style="fill: none; stroke-dasharray: 5.55,2.4; stroke-dashoffset: 0; stroke: #808080; stroke-opacity: 0.5; stroke-width: 1.5"/>
   </g>
   <g id="line2d_29">
    <path d="M 193.982771 257.76 
L 193.982771 36 
" clip-path="url(#p77d08c471a)" style="fill: none; stroke-dasharray: 5.55,2.4; stroke-dashoffset: 0; stroke: #ff0000; stroke-width: 1.5"/>
   </g>
   <g id="patch_3">
    <path d="M 40.798438 257.76 
L 40.798438 36 
" style="fill: none; stroke: #000000; stroke-linejoin: miter; stroke-linecap: square"/>
   </g>
   <g id="patch_4">
    <path d="M 40.798438 257.76 
L 234.885394 257.76 
" style="fill: none; stroke: #000000; stroke-linejoin: miter; stroke-linecap: square"/>
   </g>
   <g id="text_16">
    <!-- Radial Correlation Function -->
    <g transform="translate(56.897228 30) scale(0.12 -0.12)">
     <defs>
      <path id="DejaVuSans-52" d="M 2841 2188 
Q 3044 2119 3236 1894 
Q 3428 1669 3622 1275 
L 4263 0 
L 3584 0 
L 2988 1197 
Q 2756 1666 2539 1819 
Q 2322 1972 1947 1972 
L 1259 1972 
L 1259 0 
L 628 0 
L 628 4666 
L 2053 4666 
Q 2853 4666 3247 4331 
Q 3641 3997 3641 3322 
Q 3641 2881 3436 2590 
Q 3231 2300 2841 2188 
z
M 1259 4147 
L 1259 2491 
L 2053 2491 
Q 2509 2491 2742 2702 
Q 2975 2913 2975 3322 
Q 2975 3731 2742 3939 
Q 2509 4147 2053 4147 
L 1259 4147 
z
" transform="scale(0.015625)"/>
      <path id="DejaVuSans-64" d="M 2906 2969 
L 2906 4863 
L 3481 4863 
L 3481 0 
L 2906 0 
L 2906 525 
Q 2725 213 2448 61 
Q 2172 -91 1784 -91 
Q 1150 -91 751 415 
Q 353 922 353 1747 
Q 353 2572 751 3078 
Q 1150 3584 1784 3584 
Q 2172 3584 2448 3432 
Q 2725 3281 2906 2969 
z
M 947 1747 
Q 947 1113 1208 752 
Q 1469 391 1925 391 
Q 2381 391 2643 752 
Q 2906 1113 2906 1747 
Q 2906 2381 2643 2742 
Q 2381 3103 1925 3103 
Q 1469 3103 1208 2742 
Q 947 2381 947 1747 
z
" transform="scale(0.015625)"/>
      <path id="DejaVuSans-6c" d="M 603 4863 
L 1178 4863 
L 1178 0 
L 603 0 
L 603 4863 
z
" transform="scale(0.015625)"/>
      <path id="DejaVuSans-43" d="M 4122 4306 
L 4122 3641 
Q 3803 3938 3442 4084 
Q 3081 4231 2675 4231 
Q 1875 4231 1450 3742 
Q 1025 3253 1025 2328 
Q 1025 1406 1450 917 
Q 1875 428 2675 428 
Q 3081 428 3442 575 
Q 3803 722 4122 1019 
L 4122 359 
Q 3791 134 3420 21 
Q 3050 -91 2638 -91 
Q 1578 -91 968 557 
Q 359 1206 359 2328 
Q 359 3453 968 4101 
Q 1578 4750 2638 4750 
Q 3056 4750 3426 4639 
Q 3797 4528 4122 4306 
z
" transform="scale(0.015625)"/>
      <path id="DejaVuSans-6f" d="M 1959 3097 
Q 1497 3097 1228 2736 
Q 959 2375 959 1747 
Q 959 1119 1226 758 
Q 1494 397 1959 397 
Q 2419 397 2687 759 
Q 2956 1122 2956 1747 
Q 2956 2369 2687 2733 
Q 2419 3097 1959 3097 
z
M 1959 3584 
Q 2709 3584 3137 3096 
Q 3566 2609 3566 1747 
Q 3566 888 3137 398 
Q 2709 -91 1959 -91 
Q 1206 -91 779 398 
Q 353 888 353 1747 
Q 353 2609 779 3096 
Q 1206 3584 1959 3584 
z
" transform="scale(0.015625)"/>
      <path id="DejaVuSans-46" d="M 628 4666 
L 3309 4666 
L 3309 4134 
L 1259 4134 
L 1259 2759 
L 3109 2759 
L 3109 2228 
L 1259 2228 
L 1259 0 
L 628 0 
L 628 4666 
z
" transform="scale(0.015625)"/>
      <path id="DejaVuSans-75" d="M 544 1381 
L 544 3500 
L 1119 3500 
L 1119 1403 
Q 1119 906 1312 657 
Q 1506 409 1894 409 
Q 2359 409 2629 706 
Q 2900 1003 2900 1516 
L 2900 3500 
L 3475 3500 
L 3475 0 
L 2900 0 
L 2900 538 
Q 2691 219 2414 64 
Q 2138 -91 1772 -91 
Q 1169 -91 856 284 
Q 544 659 544 1381 
z
M 1991 3584 
L 1991 3584 
z
" transform="scale(0.015625)"/>
     </defs>
     <use xlink:href="#DejaVuSans-52"/>
     <use xlink:href="#DejaVuSans-61" transform="translate(67.232422 0)"/>
     <use xlink:href="#DejaVuSans-64" transform="translate(128.511719 0)"/>
     <use xlink:href="#DejaVuSans-69" transform="translate(191.988281 0)"/>
     <use xlink:href="#DejaVuSans-61" transform="translate(219.771484 0)"/>
     <use xlink:href="#DejaVuSans-6c" transform="translate(281.050781 0)"/>
     <use xlink:href="#DejaVuSans-20" transform="translate(308.833984 0)"/>
     <use xlink:href="#DejaVuSans-43" transform="translate(340.621094 0)"/>
     <use xlink:href="#DejaVuSans-6f" transform="translate(410.445312 0)"/>
     <use xlink:href="#DejaVuSans-72" transform="translate(471.626953 0)"/>
     <use xlink:href="#DejaVuSans-72" transform="translate(510.990234 0)"/>
     <use xlink:href="#DejaVuSans-65" transform="translate(549.853516 0)"/>
     <use xlink:href="#DejaVuSans-6c" transform="translate(611.376953 0)"/>
     <use xlink:href="#DejaVuSans-61" transform="translate(639.160156 0)"/>
     <use xlink:href="#DejaVuSans-74" transform="translate(700.439453 0)"/>
     <use xlink:href="#DejaVuSans-69" transform="translate(739.648438 0)"/>
     <use xlink:href="#DejaVuSans-6f" transform="translate(767.431641 0)"/>
     <use xlink:href="#DejaVuSans-6e" transform="translate(828.613281 0)"/>
     <use xlink:href="#DejaVuSans-20" transform="translate(891.992188 0)"/>
     <use xlink:href="#DejaVuSans-46" transform="translate(923.779297 0)"/>
     <use xlink:href="#DejaVuSans-75" transform="translate(975.798828 0)"/>
     <use xlink:href="#DejaVuSans-6e" transform="translate(1039.177734 0)"/>
     <use xlink:href="#DejaVuSans-63" transform="translate(1102.556641 0)"/>
     <use xlink:href="#DejaVuSans-74" transform="translate(1157.537109 0)"/>
     <use xlink:href="#DejaVuSans-69" transform="translate(1196.746094 0)"/>
     <use xlink:href="#DejaVuSans-6f" transform="translate(1224.529297 0)"/>
     <use xlink:href="#DejaVuSans-6e" transform="translate(1285.710938 0)"/>
    </g>
   </g>
   <g id="legend_1">
    <g id="patch_5">
     <path d="M 47.098438 154.844297 
L 105.632188 154.844297 
Q 107.432188 154.844297 107.432188 153.044297 
L 107.432188 140.715703 
Q 107.432188 138.915703 105.632188 138.915703 
L 47.098438 138.915703 
Q 45.298438 138.915703 45.298438 140.715703 
L 45.298438 153.044297 
Q 45.298438 154.844297 47.098438 154.844297 
z
" style="fill: #ffffff; opacity: 0.8; stroke: #cccccc; stroke-linejoin: miter"/>
    </g>
    <g id="line2d_30">
     <path d="M 48.898438 146.204297 
L 57.898438 146.204297 
L 66.898438 146.204297 
" style="fill: none; stroke-dasharray: 5.55,2.4; stroke-dashoffset: 0; stroke: #ff0000; stroke-width: 1.5"/>
    </g>
    <g id="text_17">
     <!-- ξ = 10 -->
     <g transform="translate(74.098438 149.354297) scale(0.09 -0.09)">
      <defs>
       <path id="DejaVuSans-3be" d="M 2281 397 
Q 2694 394 2941 159 
Q 3203 -88 3203 -463 
Q 3203 -822 2972 -1072 
Q 2722 -1344 2213 -1344 
Q 2213 -1109 2213 -872 
Q 2428 -888 2559 -750 
Q 2659 -641 2659 -525 
Q 2659 -359 2559 -222 
Q 2463 -91 2281 -91 
Q 334 -91 334 1275 
Q 334 2213 1375 2488 
Q 500 2600 500 3413 
Q 500 4028 1188 4284 
L 538 4284 
L 538 4863 
L 3003 4863 
L 3003 4284 
Q 1038 4284 1038 3375 
Q 1038 2778 2688 2750 
L 2688 2219 
Q 906 2288 913 1275 
Q 916 428 2281 397 
z
" transform="scale(0.015625)"/>
       <path id="DejaVuSans-3d" d="M 678 2906 
L 4684 2906 
L 4684 2381 
L 678 2381 
L 678 2906 
z
M 678 1631 
L 4684 1631 
L 4684 1100 
L 678 1100 
L 678 1631 
z
" transform="scale(0.015625)"/>
      </defs>
      <use xlink:href="#DejaVuSans-3be"/>
      <use xlink:href="#DejaVuSans-20" transform="translate(55.761719 0)"/>
      <use xlink:href="#DejaVuSans-3d" transform="translate(87.548828 0)"/>
      <use xlink:href="#DejaVuSans-20" transform="translate(171.337891 0)"/>
      <use xlink:href="#DejaVuSans-31" transform="translate(203.125 0)"/>
      <use xlink:href="#DejaVuSans-30" transform="translate(266.748047 0)"/>
     </g>
    </g>
   </g>
  </g>
  <g id="axes_2">
   <g id="patch_6">
    <path d="M 293.111481 257.76 
L 487.198438 257.76 
L 487.198438 36 
L 293.111481 36 
z
" style="fill: #ffffff"/>
   </g>
   <g id="matplotlib.axis_3">
    <g id="xtick_7">
     <g id="line2d_31">
      <path d="M 317.97386 257.76 
L 317.97386 36 
" clip-path="url(#p040bc1f54c)" style="fill: none; stroke-dasharray: 2.96,1.28; stroke-dashoffset: 0; stroke: #b0b0b0; stroke-opacity: 0.3; stroke-width: 0.8"/>
     </g>
     <g id="line2d_32">
      <g>
       <use xlink:href="#mc7ae59c174" x="317.97386" y="257.76" style="stroke: #000000"/>
      </g>
     </g>
     <g id="text_18">
      <!-- 2 -->
      <g transform="translate(315.110735 272.098594) scale(0.09 -0.09)">
       <use xlink:href="#DejaVuSans-32"/>
      </g>
     </g>
    </g>
    <g id="xtick_8">
     <g id="line2d_33">
      <path d="M 350.054348 257.76 
L 350.054348 36 
" clip-path="url(#p040bc1f54c)" style="fill: none; stroke-dasharray: 2.96,1.28; stroke-dashoffset: 0; stroke: #b0b0b0; stroke-opacity: 0.3; stroke-width: 0.8"/>
     </g>
     <g id="line2d_34">
      <g>
       <use xlink:href="#mc7ae59c174" x="350.054348" y="257.76" style="stroke: #000000"/>
      </g>
     </g>
     <g id="text_19">
      <!-- 4 -->
      <g transform="translate(347.191223 272.098594) scale(0.09 -0.09)">
       <use xlink:href="#DejaVuSans-34"/>
      </g>
     </g>
    </g>
    <g id="xtick_9">
     <g id="line2d_35">
      <path d="M 382.134837 257.76 
L 382.134837 36 
" clip-path="url(#p040bc1f54c)" style="fill: none; stroke-dasharray: 2.96,1.28; stroke-dashoffset: 0; stroke: #b0b0b0; stroke-opacity: 0.3; stroke-width: 0.8"/>
     </g>
     <g id="line2d_36">
      <g>
       <use xlink:href="#mc7ae59c174" x="382.134837" y="257.76" style="stroke: #000000"/>
      </g>
     </g>
     <g id="text_20">
      <!-- 6 -->
      <g transform="translate(379.271712 272.098594) scale(0.09 -0.09)">
       <use xlink:href="#DejaVuSans-36"/>
      </g>
     </g>
    </g>
    <g id="xtick_10">
     <g id="line2d_37">
      <path d="M 414.215326 257.76 
L 414.215326 36 
" clip-path="url(#p040bc1f54c)" style="fill: none; stroke-dasharray: 2.96,1.28; stroke-dashoffset: 0; stroke: #b0b0b0; stroke-opacity: 0.3; stroke-width: 0.8"/>
     </g>
     <g id="line2d_38">
      <g>
       <use xlink:href="#mc7ae59c174" x="414.215326" y="257.76" style="stroke: #000000"/>
      </g>
     </g>
     <g id="text_21">
      <!-- 8 -->
      <g transform="translate(411.352201 272.098594) scale(0.09 -0.09)">
       <use xlink:href="#DejaVuSans-38"/>
      </g>
     </g>
    </g>
    <g id="xtick_11">
     <g id="line2d_39">
      <path d="M 446.295814 257.76 
L 446.295814 36 
" clip-path="url(#p040bc1f54c)" style="fill: none; stroke-dasharray: 2.96,1.28; stroke-dashoffset: 0; stroke: #b0b0b0; stroke-opacity: 0.3; stroke-width: 0.8"/>
     </g>
     <g id="line2d_40">
      <g>
       <use xlink:href="#mc7ae59c174" x="446.295814" y="257.76" style="stroke: #000000"/>
      </g>
     </g>
     <g id="text_22">
      <!-- 10 -->
      <g transform="translate(440.569564 272.098594) scale(0.09 -0.09)">
       <use xlink:href="#DejaVuSans-31"/>
       <use xlink:href="#DejaVuSans-30" transform="translate(63.623047 0)"/>
      </g>
     </g>
    </g>
    <g id="xtick_12">
     <g id="line2d_41">
      <path d="M 478.376303 257.76 
L 478.376303 36 
" clip-path="url(#p040bc1f54c)" style="fill: none; stroke-dasharray: 2.96,1.28; stroke-dashoffset: 0; stroke: #b0b0b0; stroke-opacity: 0.3; stroke-width: 0.8"/>
     </g>
     <g id="line2d_42">
      <g>
       <use xlink:href="#mc7ae59c174" x="478.376303" y="257.76" style="stroke: #000000"/>
      </g>
     </g>
     <g id="text_23">
      <!-- 12 -->
      <g transform="translate(472.650053 272.098594) scale(0.09 -0.09)">
       <use xlink:href="#DejaVuSans-31"/>
       <use xlink:href="#DejaVuSans-32" transform="translate(63.623047 0)"/>
      </g>
     </g>
    </g>
    <g id="text_24">
     <!-- Distance -->
     <g transform="translate(366.106209 286.328594) scale(0.11 -0.11)">
      <use xlink:href="#DejaVuSans-44"/>
      <use xlink:href="#DejaVuSans-69" transform="translate(77.001953 0)"/>
      <use xlink:href="#DejaVuSans-73" transform="translate(104.785156 0)"/>
      <use xlink:href="#DejaVuSans-74" transform="translate(156.884766 0)"/>
      <use xlink:href="#DejaVuSans-61" transform="translate(196.09375 0)"/>
      <use xlink:href="#DejaVuSans-6e" transform="translate(257.373047 0)"/>
      <use xlink:href="#DejaVuSans-63" transform="translate(320.751953 0)"/>
      <use xlink:href="#DejaVuSans-65" transform="translate(375.732422 0)"/>
     </g>
    </g>
   </g>
   <g id="matplotlib.axis_4">
    <g id="ytick_8">
     <g id="line2d_43">
      <path d="M 293.111481 230.460559 
L 487.198438 230.460559 
" clip-path="url(#p040bc1f54c)" style="fill: none; stroke-dasharray: 2.96,1.28; stroke-dashoffset: 0; stroke: #b0b0b0; stroke-opacity: 0.3; stroke-width: 0.8"/>
     </g>
     <g id="line2d_44">
      <g>
       <use xlink:href="#m896644db6f" x="293.111481" y="230.460559" style="stroke: #000000"/>
      </g>
     </g>
     <g id="text_25">
      <!-- 0 -->
      <g transform="translate(279.885231 233.879855) scale(0.09 -0.09)">
       <use xlink:href="#DejaVuSans-30"/>
      </g>
     </g>
    </g>
    <g id="ytick_9">
     <g id="line2d_45">
      <path d="M 293.111481 196.021676 
L 487.198438 196.021676 
" clip-path="url(#p040bc1f54c)" style="fill: none; stroke-dasharray: 2.96,1.28; stroke-dashoffset: 0; stroke: #b0b0b0; stroke-opacity: 0.3; stroke-width: 0.8"/>
     </g>
     <g id="line2d_46">
      <g>
       <use xlink:href="#m896644db6f" x="293.111481" y="196.021676" style="stroke: #000000"/>
      </g>
     </g>
     <g id="text_26">
      <!-- 2 -->
      <g transform="translate(279.885231 199.440973) scale(0.09 -0.09)">
       <use xlink:href="#DejaVuSans-32"/>
      </g>
     </g>
    </g>
    <g id="ytick_10">
     <g id="line2d_47">
      <path d="M 293.111481 161.582793 
L 487.198438 161.582793 
" clip-path="url(#p040bc1f54c)" style="fill: none; stroke-dasharray: 2.96,1.28; stroke-dashoffset: 0; stroke: #b0b0b0; stroke-opacity: 0.3; stroke-width: 0.8"/>
     </g>
     <g id="line2d_48">
      <g>
       <use xlink:href="#m896644db6f" x="293.111481" y="161.582793" style="stroke: #000000"/>
      </g>
     </g>
     <g id="text_27">
      <!-- 4 -->
      <g transform="translate(279.885231 165.00209) scale(0.09 -0.09)">
       <use xlink:href="#DejaVuSans-34"/>
      </g>
     </g>
    </g>
    <g id="ytick_11">
     <g id="line2d_49">
      <path d="M 293.111481 127.14391 
L 487.198438 127.14391 
" clip-path="url(#p040bc1f54c)" style="fill: none; stroke-dasharray: 2.96,1.28; stroke-dashoffset: 0; stroke: #b0b0b0; stroke-opacity: 0.3; stroke-width: 0.8"/>
     </g>
     <g id="line2d_50">
      <g>
       <use xlink:href="#m896644db6f" x="293.111481" y="127.14391" style="stroke: #000000"/>
      </g>
     </g>
     <g id="text_28">
      <!-- 6 -->
      <g transform="translate(279.885231 130.563207) scale(0.09 -0.09)">
       <use xlink:href="#DejaVuSans-36"/>
      </g>
     </g>
    </g>
    <g id="ytick_12">
     <g id="line2d_51">
      <path d="M 293.111481 92.705027 
L 487.198438 92.705027 
" clip-path="url(#p040bc1f54c)" style="fill: none; stroke-dasharray: 2.96,1.28; stroke-dashoffset: 0; stroke: #b0b0b0; stroke-opacity: 0.3; stroke-width: 0.8"/>
     </g>
     <g id="line2d_52">
      <g>
       <use xlink:href="#m896644db6f" x="293.111481" y="92.705027" style="stroke: #000000"/>
      </g>
     </g>
     <g id="text_29">
      <!-- 8 -->
      <g transform="translate(279.885231 96.124324) scale(0.09 -0.09)">
       <use xlink:href="#DejaVuSans-38"/>
      </g>
     </g>
    </g>
    <g id="ytick_13">
     <g id="line2d_53">
      <path d="M 293.111481 58.266144 
L 487.198438 58.266144 
" clip-path="url(#p040bc1f54c)" style="fill: none; stroke-dasharray: 2.96,1.28; stroke-dashoffset: 0; stroke: #b0b0b0; stroke-opacity: 0.3; stroke-width: 0.8"/>
     </g>
     <g id="line2d_54">
      <g>
       <use xlink:href="#m896644db6f" x="293.111481" y="58.266144" style="stroke: #000000"/>
      </g>
     </g>
     <g id="text_30">
      <!-- 10 -->
      <g transform="translate(274.158981 61.685441) scale(0.09 -0.09)">
       <use xlink:href="#DejaVuSans-31"/>
       <use xlink:href="#DejaVuSans-30" transform="translate(63.623047 0)"/>
      </g>
     </g>
    </g>
    <g id="text_31">
     <!-- g(r) - 1 -->
     <g transform="translate(267.871325 165.903984) rotate(-90) scale(0.11 -0.11)">
      <use xlink:href="#DejaVuSans-67"/>
      <use xlink:href="#DejaVuSans-28" transform="translate(63.476562 0)"/>
      <use xlink:href="#DejaVuSans-72" transform="translate(102.490234 0)"/>
      <use xlink:href="#DejaVuSans-29" transform="translate(143.603516 0)"/>
      <use xlink:href="#DejaVuSans-20" transform="translate(182.617188 0)"/>
      <use xlink:href="#DejaVuSans-2d" transform="translate(214.404297 0)"/>
      <use xlink:href="#DejaVuSans-20" transform="translate(250.488281 0)"/>
      <use xlink:href="#DejaVuSans-31" transform="translate(282.275391 0)"/>
     </g>
    </g>
   </g>
   <g id="line2d_55">
    <path d="M 301.933615 46.08 
L 317.97386 66.83634 
L 334.014104 86.899262 
L 350.054348 106.268764 
L 366.094593 124.944848 
L 382.134837 142.927512 
L 398.175081 160.216758 
L 414.215326 174.871011 
L 430.25557 188.924302 
L 446.295814 202.376629 
L 462.336059 215.227994 
L 478.376303 225.721734 
" clip-path="url(#p040bc1f54c)" style="fill: none; stroke: #1f77b4; stroke-width: 2; stroke-linecap: square"/>
    <defs>
     <path id="m30a5573989" d="M 0 3 
C 0.795609 3 1.55874 2.683901 2.12132 2.12132 
C 2.683901 1.55874 3 0.795609 3 0 
C 3 -0.795609 2.683901 -1.55874 2.12132 -2.12132 
C 1.55874 -2.683901 0.795609 -3 0 -3 
C -0.795609 -3 -1.55874 -2.683901 -2.12132 -2.12132 
C -2.683901 -1.55874 -3 -0.795609 -3 0 
C -3 0.795609 -2.683901 1.55874 -2.12132 2.12132 
C -1.55874 2.683901 -0.795609 3 0 3 
z
" style="stroke: #1f77b4"/>
    </defs>
    <g clip-path="url(#p040bc1f54c)">
     <use xlink:href="#m30a5573989" x="301.933615" y="46.08" style="fill: #1f77b4; stroke: #1f77b4"/>
     <use xlink:href="#m30a5573989" x="317.97386" y="66.83634" style="fill: #1f77b4; stroke: #1f77b4"/>
     <use xlink:href="#m30a5573989" x="334.014104" y="86.899262" style="fill: #1f77b4; stroke: #1f77b4"/>
     <use xlink:href="#m30a5573989" x="350.054348" y="106.268764" style="fill: #1f77b4; stroke: #1f77b4"/>
     <use xlink:href="#m30a5573989" x="366.094593" y="124.944848" style="fill: #1f77b4; stroke: #1f77b4"/>
     <use xlink:href="#m30a5573989" x="382.134837" y="142.927512" style="fill: #1f77b4; stroke: #1f77b4"/>
     <use xlink:href="#m30a5573989" x="398.175081" y="160.216758" style="fill: #1f77b4; stroke: #1f77b4"/>
     <use xlink:href="#m30a5573989" x="414.215326" y="174.871011" style="fill: #1f77b4; stroke: #1f77b4"/>
     <use xlink:href="#m30a5573989" x="430.25557" y="188.924302" style="fill: #1f77b4; stroke: #1f77b4"/>
     <use xlink:href="#m30a5573989" x="446.295814" y="202.376629" style="fill: #1f77b4; stroke: #1f77b4"/>
     <use xlink:href="#m30a5573989" x="462.336059" y="215.227994" style="fill: #1f77b4; stroke: #1f77b4"/>
     <use xlink:href="#m30a5573989" x="478.376303" y="225.721734" style="fill: #1f77b4; stroke: #1f77b4"/>
    </g>
   </g>
   <g id="line2d_56">
    <path d="M 301.933615 46.08 
L 317.97386 66.83634 
L 334.014104 86.899262 
L 350.054348 106.268764 
L 366.094593 124.944848 
L 382.134837 142.927512 
L 398.175081 160.216758 
L 414.215326 174.871011 
L 430.25557 188.924302 
L 446.295814 202.376629 
L 462.336059 215.227994 
L 478.376303 225.721734 
" clip-path="url(#p040bc1f54c)" style="fill: none; stroke: #ff7f0e; stroke-width: 2; stroke-linecap: square"/>
    <defs>
     <path id="m98f6f57a54" d="M 0 3 
C 0.795609 3 1.55874 2.683901 2.12132 2.12132 
C 2.683901 1.55874 3 0.795609 3 0 
C 3 -0.795609 2.683901 -1.55874 2.12132 -2.12132 
C 1.55874 -2.683901 0.795609 -3 0 -3 
C -0.795609 -3 -1.55874 -2.683901 -2.12132 -2.12132 
C -2.683901 -1.55874 -3 -0.795609 -3 0 
C -3 0.795609 -2.683901 1.55874 -2.12132 2.12132 
C -1.55874 2.683901 -0.795609 3 0 3 
z
" style="stroke: #ff7f0e"/>
    </defs>
    <g clip-path="url(#p040bc1f54c)">
     <use xlink:href="#m98f6f57a54" x="301.933615" y="46.08" style="fill: #ff7f0e; stroke: #ff7f0e"/>
     <use xlink:href="#m98f6f57a54" x="317.97386" y="66.83634" style="fill: #ff7f0e; stroke: #ff7f0e"/>
     <use xlink:href="#m98f6f57a54" x="334.014104" y="86.899262" style="fill: #ff7f0e; stroke: #ff7f0e"/>
     <use xlink:href="#m98f6f57a54" x="350.054348" y="106.268764" style="fill: #ff7f0e; stroke: #ff7f0e"/>
     <use xlink:href="#m98f6f57a54" x="366.094593" y="124.944848" style="fill: #ff7f0e; stroke: #ff7f0e"/>
     <use xlink:href="#m98f6f57a54" x="382.134837" y="142.927512" style="fill: #ff7f0e; stroke: #ff7f0e"/>
     <use xlink:href="#m98f6f57a54" x="398.175081" y="160.216758" style="fill: #ff7f0e; stroke: #ff7f0e"/>
     <use xlink:href="#m98f6f57a54" x="414.215326" y="174.871011" style="fill: #ff7f0e; stroke: #ff7f0e"/>
     <use xlink:href="#m98f6f57a54" x="430.25557" y="188.924302" style="fill: #ff7f0e; stroke: #ff7f0e"/>
     <use xlink:href="#m98f6f57a54" x="446.295814" y="202.376629" style="fill: #ff7f0e; stroke: #ff7f0e"/>
     <use xlink:href="#m98f6f57a54" x="462.336059" y="215.227994" style="fill: #ff7f0e; stroke: #ff7f0e"/>
     <use xlink:href="#m98f6f57a54" x="478.376303" y="225.721734" style="fill: #ff7f0e; stroke: #ff7f0e"/>
    </g>
   </g>
   <g id="line2d_57">
    <path d="M 301.933615 58.991461 
L 317.97386 91.111551 
L 334.014104 119.011955 
L 350.054348 144.970787 
L 366.094593 169.046292 
L 382.134837 189.506774 
L 398.175081 206.651788 
L 414.215326 220.769798 
L 430.25557 232.13817 
L 446.295814 241.023178 
L 462.336059 246.273746 
L 478.376303 247.68 
" clip-path="url(#p040bc1f54c)" style="fill: none; stroke: #2ca02c; stroke-width: 2; stroke-linecap: square"/>
    <defs>
     <path id="m39681f1cfe" d="M 0 3 
C 0.795609 3 1.55874 2.683901 2.12132 2.12132 
C 2.683901 1.55874 3 0.795609 3 0 
C 3 -0.795609 2.683901 -1.55874 2.12132 -2.12132 
C 1.55874 -2.683901 0.795609 -3 0 -3 
C -0.795609 -3 -1.55874 -2.683901 -2.12132 -2.12132 
C -2.683901 -1.55874 -3 -0.795609 -3 0 
C -3 0.795609 -2.683901 1.55874 -2.12132 2.12132 
C -1.55874 2.683901 -0.795609 3 0 3 
z
" style="stroke: #2ca02c"/>
    </defs>
    <g clip-path="url(#p040bc1f54c)">
     <use xlink:href="#m39681f1cfe" x="301.933615" y="58.991461" style="fill: #2ca02c; stroke: #2ca02c"/>
     <use xlink:href="#m39681f1cfe" x="317.97386" y="91.111551" style="fill: #2ca02c; stroke: #2ca02c"/>
     <use xlink:href="#m39681f1cfe" x="334.014104" y="119.011955" style="fill: #2ca02c; stroke: #2ca02c"/>
     <use xlink:href="#m39681f1cfe" x="350.054348" y="144.970787" style="fill: #2ca02c; stroke: #2ca02c"/>
     <use xlink:href="#m39681f1cfe" x="366.094593" y="169.046292" style="fill: #2ca02c; stroke: #2ca02c"/>
     <use xlink:href="#m39681f1cfe" x="382.134837" y="189.506774" style="fill: #2ca02c; stroke: #2ca02c"/>
     <use xlink:href="#m39681f1cfe" x="398.175081" y="206.651788" style="fill: #2ca02c; stroke: #2ca02c"/>
     <use xlink:href="#m39681f1cfe" x="414.215326" y="220.769798" style="fill: #2ca02c; stroke: #2ca02c"/>
     <use xlink:href="#m39681f1cfe" x="430.25557" y="232.13817" style="fill: #2ca02c; stroke: #2ca02c"/>
     <use xlink:href="#m39681f1cfe" x="446.295814" y="241.023178" style="fill: #2ca02c; stroke: #2ca02c"/>
     <use xlink:href="#m39681f1cfe" x="462.336059" y="246.273746" style="fill: #2ca02c; stroke: #2ca02c"/>
     <use xlink:href="#m39681f1cfe" x="478.376303" y="247.68" style="fill: #2ca02c; stroke: #2ca02c"/>
    </g>
   </g>
   <g id="line2d_58">
    <path d="M 293.111481 230.460559 
L 487.198438 230.460559 
" clip-path="url(#p040bc1f54c)" style="fill: none; stroke-dasharray: 5.55,2.4; stroke-dashoffset: 0; stroke: #808080; stroke-opacity: 0.5; stroke-width: 1.5"/>
   </g>
   <g id="patch_7">
    <path d="M 293.111481 257.76 
L 293.111481 36 
" style="fill: none; stroke: #000000; stroke-linejoin: miter; stroke-linecap: square"/>
   </g>
   <g id="patch_8">
    <path d="M 293.111481 257.76 
L 487.198438 257.76 
" style="fill: none; stroke: #000000; stroke-linejoin: miter; stroke-linecap: square"/>
   </g>
   <g id="text_32">
    <!-- Directional Correlations -->
    <g transform="translate(319.594022 30) scale(0.12 -0.12)">
     <use xlink:href="#DejaVuSans-44"/>
     <use xlink:href="#DejaVuSans-69" transform="translate(77.001953 0)"/>
     <use xlink:href="#DejaVuSans-72" transform="translate(104.785156 0)"/>
     <use xlink:href="#DejaVuSans-65" transform="translate(143.648438 0)"/>
     <use xlink:href="#DejaVuSans-63" transform="translate(205.171875 0)"/>
     <use xlink:href="#DejaVuSans-74" transform="translate(260.152344 0)"/>
     <use xlink:href="#DejaVuSans-69" transform="translate(299.361328 0)"/>
     <use xlink:href="#DejaVuSans-6f" transform="translate(327.144531 0)"/>
     <use xlink:href="#DejaVuSans-6e" transform="translate(388.326172 0)"/>
     <use xlink:href="#DejaVuSans-61" transform="translate(451.705078 0)"/>
     <use xlink:href="#DejaVuSans-6c" transform="translate(512.984375 0)"/>
     <use xlink:href="#DejaVuSans-20" transform="translate(540.767578 0)"/>
     <use xlink:href="#DejaVuSans-43" transform="translate(572.554688 0)"/>
     <use xlink:href="#DejaVuSans-6f" transform="translate(642.378906 0)"/>
     <use xlink:href="#DejaVuSans-72" transform="translate(703.560547 0)"/>
     <use xlink:href="#DejaVuSans-72" transform="translate(742.923828 0)"/>
     <use xlink:href="#DejaVuSans-65" transform="translate(781.787109 0)"/>
     <use xlink:href="#DejaVuSans-6c" transform="translate(843.310547 0)"/>
     <use xlink:href="#DejaVuSans-61" transform="translate(871.09375 0)"/>
     <use xlink:href="#DejaVuSans-74" transform="translate(932.373047 0)"/>
     <use xlink:href="#DejaVuSans-69" transform="translate(971.582031 0)"/>
     <use xlink:href="#DejaVuSans-6f" transform="translate(999.365234 0)"/>
     <use xlink:href="#DejaVuSans-6e" transform="translate(1060.546875 0)"/>
     <use xlink:href="#DejaVuSans-73" transform="translate(1123.925781 0)"/>
    </g>
   </g>
   <g id="legend_2">
    <g id="patch_9">
     <path d="M 406.145 82.830937 
L 480.898438 82.830937 
Q 482.698438 82.830937 482.698438 81.030937 
L 482.698438 42.3 
Q 482.698438 40.5 480.898438 40.5 
L 406.145 40.5 
Q 404.345 40.5 404.345 42.3 
L 404.345 81.030937 
Q 404.345 82.830937 406.145 82.830937 
z
" style="fill: #ffffff; opacity: 0.8; stroke: #cccccc; stroke-linejoin: miter"/>
    </g>
    <g id="line2d_59">
     <path d="M 407.945 47.788594 
L 416.945 47.788594 
L 425.945 47.788594 
" style="fill: none; stroke: #1f77b4; stroke-width: 2; stroke-linecap: square"/>
     <g>
      <use xlink:href="#m30a5573989" x="416.945" y="47.788594" style="fill: #1f77b4; stroke: #1f77b4"/>
     </g>
    </g>
    <g id="text_33">
     <!-- Horizontal -->
     <g transform="translate(433.145 50.938594) scale(0.09 -0.09)">
      <defs>
       <path id="DejaVuSans-48" d="M 628 4666 
L 1259 4666 
L 1259 2753 
L 3553 2753 
L 3553 4666 
L 4184 4666 
L 4184 0 
L 3553 0 
L 3553 2222 
L 1259 2222 
L 1259 0 
L 628 0 
L 628 4666 
z
" transform="scale(0.015625)"/>
       <path id="DejaVuSans-7a" d="M 353 3500 
L 3084 3500 
L 3084 2975 
L 922 459 
L 3084 459 
L 3084 0 
L 275 0 
L 275 525 
L 2438 3041 
L 353 3041 
L 353 3500 
z
" transform="scale(0.015625)"/>
      </defs>
      <use xlink:href="#DejaVuSans-48"/>
      <use xlink:href="#DejaVuSans-6f" transform="translate(75.195312 0)"/>
      <use xlink:href="#DejaVuSans-72" transform="translate(136.376953 0)"/>
      <use xlink:href="#DejaVuSans-69" transform="translate(177.490234 0)"/>
      <use xlink:href="#DejaVuSans-7a" transform="translate(205.273438 0)"/>
      <use xlink:href="#DejaVuSans-6f" transform="translate(257.763672 0)"/>
      <use xlink:href="#DejaVuSans-6e" transform="translate(318.945312 0)"/>
      <use xlink:href="#DejaVuSans-74" transform="translate(382.324219 0)"/>
      <use xlink:href="#DejaVuSans-61" transform="translate(421.533203 0)"/>
      <use xlink:href="#DejaVuSans-6c" transform="translate(482.8125 0)"/>
     </g>
    </g>
    <g id="line2d_60">
     <path d="M 407.945 60.998906 
L 416.945 60.998906 
L 425.945 60.998906 
" style="fill: none; stroke: #ff7f0e; stroke-width: 2; stroke-linecap: square"/>
     <g>
      <use xlink:href="#m98f6f57a54" x="416.945" y="60.998906" style="fill: #ff7f0e; stroke: #ff7f0e"/>
     </g>
    </g>
    <g id="text_34">
     <!-- Vertical -->
     <g transform="translate(433.145 64.148906) scale(0.09 -0.09)">
      <defs>
       <path id="DejaVuSans-56" d="M 1831 0 
L 50 4666 
L 709 4666 
L 2188 738 
L 3669 4666 
L 4325 4666 
L 2547 0 
L 1831 0 
z
" transform="scale(0.015625)"/>
      </defs>
      <use xlink:href="#DejaVuSans-56"/>
      <use xlink:href="#DejaVuSans-65" transform="translate(60.658203 0)"/>
      <use xlink:href="#DejaVuSans-72" transform="translate(122.181641 0)"/>
      <use xlink:href="#DejaVuSans-74" transform="translate(163.294922 0)"/>
      <use xlink:href="#DejaVuSans-69" transform="translate(202.503906 0)"/>
      <use xlink:href="#DejaVuSans-63" transform="translate(230.287109 0)"/>
      <use xlink:href="#DejaVuSans-61" transform="translate(285.267578 0)"/>
      <use xlink:href="#DejaVuSans-6c" transform="translate(346.546875 0)"/>
     </g>
    </g>
    <g id="line2d_61">
     <path d="M 407.945 74.209219 
L 416.945 74.209219 
L 425.945 74.209219 
" style="fill: none; stroke: #2ca02c; stroke-width: 2; stroke-linecap: square"/>
     <g>
      <use xlink:href="#m39681f1cfe" x="416.945" y="74.209219" style="fill: #2ca02c; stroke: #2ca02c"/>
     </g>
    </g>
    <g id="text_35">
     <!-- Diagonal -->
     <g transform="translate(433.145 77.359219) scale(0.09 -0.09)">
      <use xlink:href="#DejaVuSans-44"/>
      <use xlink:href="#DejaVuSans-69" transform="translate(77.001953 0)"/>
      <use xlink:href="#DejaVuSans-61" transform="translate(104.785156 0)"/>
      <use xlink:href="#DejaVuSans-67" transform="translate(166.064453 0)"/>
      <use xlink:href="#DejaVuSans-6f" transform="translate(229.541016 0)"/>
      <use xlink:href="#DejaVuSans-6e" transform="translate(290.722656 0)"/>
      <use xlink:href="#DejaVuSans-61" transform="translate(354.101562 0)"/>
      <use xlink:href="#DejaVuSans-6c" transform="translate(415.380859 0)"/>
     </g>
    </g>
   </g>
  </g>
  <g id="text_36">
   <!-- Spatial Correlation Analysis -->
   <g transform="translate(174.524375 16.318125) scale(0.12 -0.12)">
    <defs>
     <path id="DejaVuSans-53" d="M 3425 4513 
L 3425 3897 
Q 3066 4069 2747 4153 
Q 2428 4238 2131 4238 
Q 1616 4238 1336 4038 
Q 1056 3838 1056 3469 
Q 1056 3159 1242 3001 
Q 1428 2844 1947 2747 
L 2328 2669 
Q 3034 2534 3370 2195 
Q 3706 1856 3706 1288 
Q 3706 609 3251 259 
Q 2797 -91 1919 -91 
Q 1588 -91 1214 -16 
Q 841 59 441 206 
L 441 856 
Q 825 641 1194 531 
Q 1563 422 1919 422 
Q 2459 422 2753 634 
Q 3047 847 3047 1241 
Q 3047 1584 2836 1778 
Q 2625 1972 2144 2069 
L 1759 2144 
Q 1053 2284 737 2584 
Q 422 2884 422 3419 
Q 422 4038 858 4394 
Q 1294 4750 2059 4750 
Q 2388 4750 2728 4690 
Q 3069 4631 3425 4513 
z
" transform="scale(0.015625)"/>
     <path id="DejaVuSans-70" d="M 1159 525 
L 1159 -1331 
L 581 -1331 
L 581 3500 
L 1159 3500 
L 1159 2969 
Q 1341 3281 1617 3432 
Q 1894 3584 2278 3584 
Q 2916 3584 3314 3078 
Q 3713 2572 3713 1747 
Q 3713 922 3314 415 
Q 2916 -91 2278 -91 
Q 1894 -91 1617 61 
Q 1341 213 1159 525 
z
M 3116 1747 
Q 3116 2381 2855 2742 
Q 2594 3103 2138 3103 
Q 1681 3103 1420 2742 
Q 1159 2381 1159 1747 
Q 1159 1113 1420 752 
Q 1681 391 2138 391 
Q 2594 391 2855 752 
Q 3116 1113 3116 1747 
z
" transform="scale(0.015625)"/>
     <path id="DejaVuSans-41" d="M 2188 4044 
L 1331 1722 
L 3047 1722 
L 2188 4044 
z
M 1831 4666 
L 2547 4666 
L 4325 0 
L 3669 0 
L 3244 1197 
L 1141 1197 
L 716 0 
L 50 0 
L 1831 4666 
z
" transform="scale(0.015625)"/>
     <path id="DejaVuSans-79" d="M 2059 -325 
Q 1816 -950 1584 -1140 
Q 1353 -1331 966 -1331 
L 506 -1331 
L 506 -850 
L 844 -850 
Q 1081 -850 1212 -737 
Q 1344 -625 1503 -206 
L 1606 56 
L 191 3500 
L 800 3500 
L 1894 763 
L 2988 3500 
L 3597 3500 
L 2059 -325 
z
" transform="scale(0.015625)"/>
    </defs>
    <use xlink:href="#DejaVuSans-53"/>
    <use xlink:href="#DejaVuSans-70" transform="translate(63.476562 0)"/>
    <use xlink:href="#DejaVuSans-61" transform="translate(126.953125 0)"/>
    <use xlink:href="#DejaVuSans-74" transform="translate(188.232422 0)"/>
    <use xlink:href="#DejaVuSans-69" transform="translate(227.441406 0)"/>
    <use xlink:href="#DejaVuSans-61" transform="translate(255.224609 0)"/>
    <use xlink:href="#DejaVuSans-6c" transform="translate(316.503906 0)"/>
    <use xlink:href="#DejaVuSans-20" transform="translate(344.287109 0)"/>
    <use xlink:href="#DejaVuSans-43" transform="translate(376.074219 0)"/>
    <use xlink:href="#DejaVuSans-6f" transform="translate(445.898438 0)"/>
    <use xlink:href="#DejaVuSans-72" transform="translate(507.080078 0)"/>
    <use xlink:href="#DejaVuSans-72" transform="translate(546.443359 0)"/>
    <use xlink:href="#DejaVuSans-65" transform="translate(585.306641 0)"/>
    <use xlink:href="#DejaVuSans-6c" transform="translate(646.830078 0)"/>
    <use xlink:href="#DejaVuSans-61" transform="translate(674.613281 0)"/>
    <use xlink:href="#DejaVuSans-74" transform="translate(735.892578 0)"/>
    <use xlink:href="#DejaVuSans-69" transform="translate(775.101562 0)"/>
    <use xlink:href="#DejaVuSans-6f" transform="translate(802.884766 0)"/>
    <use xlink:href="#DejaVuSans-6e" transform="translate(864.066406 0)"/>
    <use xlink:href="#DejaVuSans-20" transform="translate(927.445312 0)"/>
    <use xlink:href="#DejaVuSans-41" transform="translate(959.232422 0)"/>
    <use xlink:href="#DejaVuSans-6e" transform="translate(1027.640625 0)"/>
    <use xlink:href="#DejaVuSans-61" transform="translate(1091.019531 0)"/>
    <use xlink:href="#DejaVuSans-6c" transform="translate(1152.298828 0)"/>
    <use xlink:href="#DejaVuSans-79" transform="translate(1180.082031 0)"/>
    <use xlink:href="#DejaVuSans-73" transform="translate(1239.261719 0)"/>
    <use xlink:href="#DejaVuSans-69" transform="translate(1291.361328 0)"/>
    <use xlink:href="#DejaVuSans-73" transform="translate(1319.144531 0)"/>
   </g>
  </g>
 </g>
 <defs>
  <clipPath id="p77d08c471a">
   <rect x="40.798438" y="36" width="194.086957" height="221.76"/>
  </clipPath>
  <clipPath id="p040bc1f54c">
   <rect x="293.111481" y="36" width="194.086957" height="221.76"/>
  </clipPath>
 </defs>
</svg>
